<?xml version="1.0" encoding="UTF-8" standalone="no"?>
<!-- Created with Inkscape (http://www.inkscape.org/) -->

<svg
   xmlns:dc="http://purl.org/dc/elements/1.1/"
   xmlns:cc="http://creativecommons.org/ns#"
   xmlns:rdf="http://www.w3.org/1999/02/22-rdf-syntax-ns#"
   xmlns:svg="http://www.w3.org/2000/svg"
   xmlns="http://www.w3.org/2000/svg"
   xmlns:sodipodi="http://sodipodi.sourceforge.net/DTD/sodipodi-0.dtd"
   xmlns:inkscape="http://www.inkscape.org/namespaces/inkscape"
   width="488.44391"
   height="600.03125"
   id="svg4207"
   version="1.1"
   inkscape:version="0.48.5 r10040"
   sodipodi:docname="ane (copie).svg"
   inkscape:export-filename="/home/max/www/baleineSVG/version_plus/images/ane.png"
   inkscape:export-xdpi="105"
   inkscape:export-ydpi="105">
  <defs
     id="defs4209" />
  <sodipodi:namedview
     id="base"
     pagecolor="#ffffff"
     bordercolor="#666666"
     borderopacity="1.0"
     inkscape:pageopacity="0.0"
     inkscape:pageshadow="2"
     inkscape:zoom="0.52054069"
     inkscape:cx="554.36922"
     inkscape:cy="414.4628"
     inkscape:document-units="px"
     inkscape:current-layer="layer1"
     showgrid="false"
     fit-margin-top="0"
     fit-margin-left="0"
     fit-margin-right="0"
     fit-margin-bottom="0"
     inkscape:window-width="1600"
     inkscape:window-height="834"
     inkscape:window-x="0"
     inkscape:window-y="27"
     inkscape:window-maximized="1" />
  <metadata
     id="metadata4212">
    <rdf:RDF>
      <cc:Work
         rdf:about="">
        <dc:format>image/svg+xml</dc:format>
        <dc:type
           rdf:resource="http://purl.org/dc/dcmitype/StillImage" />
        <dc:title></dc:title>
      </cc:Work>
    </rdf:RDF>
  </metadata>
  <g
     inkscape:label="Layer 1"
     inkscape:groupmode="layer"
     id="layer1"
     transform="translate(-142.88505,-83.15625)">
    <path
       inkscape:connector-curvature="0"
       style="fill:#ffffff;fill-opacity:1;stroke:#ff9955;stroke-width:6;stroke-linecap:butt;stroke-linejoin:miter;stroke-miterlimit:4;stroke-opacity:1;stroke-dasharray:none"
       d="m 356.30937,354.12813 c -19.1428,-0.0166 -34.62776,10.84137 -63.40524,80.30639 -12.00938,28.98902 -18.0777,55.85592 -20.3747,79.78795 -3.19019,1.03091 -48.40031,15.57784 -85.33526,25.5591 -38.27568,10.34342 -39.11507,24.48846 -39.8162,36.60188 -0.7012,12.11325 11.16045,24.16603 19.75257,43.70451 8.5921,19.53831 24.86892,49.83148 63.19786,35.25394 l 31.62485,-12.02782 c 7.55729,-2.87425 13.97234,-6.13752 21.35974,-8.03582 -1.22007,30.55167 4.54323,46.24487 44.6377,46.24487 44.13891,0 55.1091,-1.78679 57.54687,-37.3277 0.28213,1.3e-4 0.49362,0 0.77766,0 0.26446,0 0.46301,1.2e-4 0.72581,0 2.44985,35.54091 13.45981,37.3277 57.59871,37.3277 40.09448,0 45.85777,-15.6932 44.6377,-46.24487 7.39439,1.89653 13.81109,5.1602 21.35974,8.03582 l 31.57301,12.02782 c 38.32098,14.59844 54.60576,-15.71563 63.19786,-35.25394 8.59212,-19.53848 20.45377,-31.59126 19.75257,-43.70451 -0.70113,-12.11342 -1.54052,-26.25846 -39.8162,-36.60188 -36.93495,-9.98126 -82.14507,-24.52819 -85.33526,-25.5591 -2.297,-23.93203 -8.31348,-50.79893 -20.32286,-79.78795 -41.85817,-101.0401 -55.66799,-78.02525 -93.37108,-78.02525 -11.78222,0 -21.26458,-2.27318 -29.96585,-2.28114 z"
       id="corps"
       class="section"
       inkscape:label="#path3415"
       inkscape:export-filename="/home/max/www/baleineSVG/version_plus/images/donkey.png"
       inkscape:export-xdpi="200"
       inkscape:export-ydpi="200" />
    <path
       id="path3428"
       style="fill:none;stroke:#ff9955;stroke-width:6;stroke-linecap:butt;stroke-linejoin:miter;stroke-miterlimit:4;stroke-opacity:1;stroke-dasharray:none"
       d="m 404.93754,536.90863 c -7.3182,6.52737 -11.71552,6.87377 -18.24772,7.21968 l -0.44505,0 c -6.53219,-0.34591 -10.92951,-0.69231 -18.24771,-7.21968"
       inkscape:connector-curvature="0"
       sodipodi:nodetypes="cccc"
       inkscape:export-filename="/home/max/www/baleineSVG/version_plus/images/donkey.png"
       inkscape:export-xdpi="200"
       inkscape:export-ydpi="200" />
    <path
       style="fill:none;stroke:#ff9955;stroke-width:6;stroke-linecap:butt;stroke-linejoin:miter;stroke-opacity:1"
       d="m 301.30386,492.5633 c -12.98785,58.23585 -18.01541,143.70429 -18.01541,143.70429"
       id="path3431"
       inkscape:connector-curvature="0"
       sodipodi:nodetypes="cc"
       inkscape:export-filename="/home/max/www/baleineSVG/version_plus/images/donkey.png"
       inkscape:export-xdpi="200"
       inkscape:export-ydpi="200" />
    <path
       sodipodi:nodetypes="cc"
       inkscape:connector-curvature="0"
       id="path3433"
       d="m 472.0164,491.67455 c 12.98785,58.23585 18.01541,143.7043 18.01541,143.7043"
       style="fill:none;stroke:#ff9955;stroke-width:6;stroke-linecap:butt;stroke-linejoin:miter;stroke-opacity:1"
       inkscape:export-filename="/home/max/www/baleineSVG/version_plus/images/donkey.png"
       inkscape:export-xdpi="200"
       inkscape:export-ydpi="200" />
    <path
       style="color:#000000;fill:#ffffff;fill-opacity:1;stroke:#ff9955;stroke-width:6;marker:none;visibility:visible;display:inline;overflow:visible;enable-background:accumulate"
       d="m 524.39111,84.853021 c -0.47992,0.01659 -0.97686,0.06769 -1.55532,0.155449 -2.31347,0.341424 -5.34724,1.236543 -8.45058,2.747734 -13.67723,6.657767 -49.87945,40.050546 -60.55382,55.836006 -8.47551,12.53365 -14.93665,28.50675 -18.1454,45.00062 -1.3612,6.99686 -5.889,45.96482 -6.53235,55.88785 -1.04776,0.3323 -1.79462,0.75435 -2.17745,1.24426 -0.7786,0.0829 -1.2787,0.29862 -1.50347,0.72581 -18.85464,-4.79951 -38.57196,-4.19936 -38.57196,-4.19936 0,0 -23.3063,-0.77376 -43.44529,5.49546 -0.21972,-8.68126 -2.7105,-39.64317 -3.68092,-45.20798 -0.92613,-5.31057 -1.72897,-8.73732 -3.26618,-12.75363 -0.008,-0.0133 0.008,-0.0391 0,-0.0518 -0.1581,-0.41198 -0.50019,-0.84636 -0.88134,-1.2961 -11.02551,-17.02336 -10.48099,-23.10319 -27.84024,-23.17428 -9.33682,-0.0382 -21.06384,4.53681 -35.61685,17.16037 -14.39996,12.49084 -23.38951,16.43107 -29.65478,28.66974 -8.50622,16.6163 -6.68577,40.6234 -8.03582,55.42126 -1.18053,12.93977 -1.86526,18.86791 -3.57724,24.57407 -1.2518,4.17274 -2.04358,8.18538 -1.76269,8.91717 0.67166,1.75025 6.24917,1.78435 12.07965,0.0518 12.29412,-3.65076 43.27415,-25.01802 54.28069,-37.17216 1.05762,1.36896 2.09331,2.68225 3.21433,4.09568 5.24662,6.61513 9.57431,11.99546 9.64299,11.92412 0.007,0 0.77504,-1.231 0.80805,-1.27729 -8.55637,17.55945 -12.96143,41.6929 -12.68033,66.80813 2e-4,0.0166 -2e-4,0.0353 0,0.0518 -0.31433,0.73959 -0.0995,9.80524 0.31106,13.37576 1.04609,33.52243 4.09502,62.13369 20.99683,87.20165 3.2313,4.79237 7.55609,-5.94191 13.37576,2.5922 0.0133,0.0182 0.0395,0.0337 0.0518,0.0518 0.73172,1.87601 1.49973,3.88921 2.28114,6.22128 l 0.72581,0 c 0.38652,0.98014 0.79412,1.98741 1.19242,3.16249 l 51.22189,-1.55532 51.22189,1.55532 c 0.39785,-1.17375 0.75447,-2.18318 1.14057,-3.16249 l 0.77766,0 c 0.75404,-2.25028 1.46963,-4.18933 2.17745,-6.01391 5.90007,-8.9676 10.27064,1.98443 13.53129,-2.85142 16.83288,-24.96575 19.88662,-53.44131 20.94499,-86.78689 0.43854,-3.70025 0.74361,-7.53389 0.8295,-11.50937 0.55585,-25.72791 -3.39342,-49.82592 -12.02781,-67.86383 -0.24857,-0.74688 0.39366,-3.65479 0.3629,-4.87333 1.61946,-2.3178 4.78329,-7.02358 9.28008,-13.79051 18.12346,-27.27294 29.10929,-47.91392 32.76543,-61.74623 2.36616,-8.95185 8.53674,-46.75203 11.56121,-70.81894 1.99543,-15.87787 3.31623,-23.44967 5.44363,-30.639812 1.5556,-5.258063 2.63599,-10.251679 2.38482,-11.094621 -0.22514,-0.756425 -1.20421,-1.11419 -2.64396,-1.088476 z"
       id="tete"
       class="section"
       inkscape:connector-curvature="0"
       sodipodi:nodetypes="cccsscccccscccssssccccsccccccccccccccccccsccsssccc"
       inkscape:label="#path3088"
       inkscape:export-filename="/home/max/www/baleineSVG/version_plus/images/donkey.png"
       inkscape:export-xdpi="200"
       inkscape:export-ydpi="200" />
    <g
       id="g3094"
       style="stroke:none;fill:#ff9955;fill-opacity:1"
       transform="matrix(-1.3876927,0,0,1.3876927,-324.34676,-1880.4597)"
       inkscape:export-filename="/home/max/www/baleineSVG/version_plus/images/donkey.png"
       inkscape:export-xdpi="200"
       inkscape:export-ydpi="200">
      <path
         style="color:#000000;fill:#ff9955;fill-opacity:1;fill-rule:nonzero;stroke:none;stroke-width:2;marker:none;visibility:visible;display:inline;overflow:visible;enable-background:accumulate"
         d="m -532.2029,1605.177 c 0,7.301 -3.78171,9.3856 -8.44667,9.3856 -4.66496,0 -8.44665,-2.0846 -8.44665,-9.3856 0,-7.301 3.78169,-13.2197 8.44665,-13.2197 4.66496,0 8.44667,5.9187 8.44667,13.2197 z"
         id="path3096"
         inkscape:connector-curvature="0"
         sodipodi:nodetypes="sssss" />
    </g>
    <path
       sodipodi:type="arc"
       style="color:#000000;fill:#ffffff;fill-opacity:1;fill-rule:nonzero;stroke:none;stroke-width:2;marker:none;visibility:visible;display:inline;overflow:visible;enable-background:accumulate"
       id="path3098"
       sodipodi:cx="-543.66968"
       sodipodi:cy="1602.5167"
       sodipodi:rx="2.911571"
       sodipodi:ry="2.911571"
       d="m -540.75811,1602.5167 a 2.911571,2.911571 0 1 1 -5.82314,0 2.911571,2.911571 0 1 1 5.82314,0 z"
       transform="matrix(-1.3876927,0,0,1.3876927,-324.4736,-1886.1463)"
       inkscape:export-filename="/home/max/www/baleineSVG/version_plus/images/donkey.png"
       inkscape:export-xdpi="200"
       inkscape:export-ydpi="200" />
    <g
       id="g3102"
       style="stroke:none;fill:#ff9955;fill-opacity:1"
       transform="matrix(-1.3876927,0,0,1.3876927,-402.401,-1880.4597)"
       inkscape:export-filename="/home/max/www/baleineSVG/version_plus/images/donkey.png"
       inkscape:export-xdpi="200"
       inkscape:export-ydpi="200">
      <path
         sodipodi:nodetypes="sssss"
         inkscape:connector-curvature="0"
         id="path3104"
         d="m -532.2029,1605.177 c 0,7.301 -3.78171,9.3856 -8.44667,9.3856 -4.66496,0 -8.44665,-2.0846 -8.44665,-9.3856 0,-7.301 3.78169,-13.2197 8.44665,-13.2197 4.66496,0 8.44667,5.9187 8.44667,13.2197 z"
         style="color:#000000;fill:#ff9955;fill-opacity:1;fill-rule:nonzero;stroke:none;stroke-width:2;marker:none;visibility:visible;display:inline;overflow:visible;enable-background:accumulate" />
    </g>
    <path
       transform="matrix(-1.3876927,0,0,1.3876927,-402.52784,-1886.1463)"
       d="m -540.75811,1602.5167 a 2.911571,2.911571 0 1 1 -5.82314,0 2.911571,2.911571 0 1 1 5.82314,0 z"
       sodipodi:ry="2.911571"
       sodipodi:rx="2.911571"
       sodipodi:cy="1602.5167"
       sodipodi:cx="-543.66968"
       id="path3106"
       style="color:#000000;fill:#ffffff;fill-opacity:1;fill-rule:nonzero;stroke:none;stroke-width:2;marker:none;visibility:visible;display:inline;overflow:visible;enable-background:accumulate"
       sodipodi:type="arc"
       inkscape:export-filename="/home/max/www/baleineSVG/version_plus/images/donkey.png"
       inkscape:export-xdpi="200"
       inkscape:export-ydpi="200" />
    <path
       inkscape:export-ydpi="200"
       inkscape:export-xdpi="200"
       inkscape:export-filename="/home/max/www/baleineSVG/version_plus/images/donkey.png"
       sodipodi:nodetypes="scscs"
       inkscape:connector-curvature="0"
       id="museau"
       class="section"
       d="m 456.37598,439.85381 c -1.45246,25.49182 -25.73104,60.22267 -70.50037,61.96497 -50.77003,-1.82989 -71.93951,-36.74987 -70.33724,-62.3142 1.60229,-25.56449 25.97633,-36.67786 70.33724,-38.40372 50.57913,2.10378 71.95282,13.26112 70.50037,38.75295 z"
       clip-path="none"
       style="color:#000000;fill:#ffffff;fill-opacity:1;fill-rule:nonzero;stroke:#ff9955;stroke-width:6;marker:none;visibility:visible;display:inline;overflow:visible;enable-background:accumulate"
       inkscape:label="#path3110" />
    <g
       inkscape:export-ydpi="200"
       inkscape:export-xdpi="200"
       inkscape:export-filename="/home/max/www/baleineSVG/version_plus/images/donkey.png"
       transform="matrix(-1.6590087,0,0,1.6590087,-481.49668,-2373.457)"
       id="g3112"
       style="stroke:none;fill:#ff9955;fill-opacity:1">
      <path
         sodipodi:nodetypes="sssss"
         inkscape:connector-curvature="0"
         id="path3114"
         d="m -539.37694,1695.8376 c 0,-3.3345 -1.72722,-4.2866 -3.85785,-4.2866 -2.13063,0 -3.85784,0.9521 -3.85784,4.2866 0,3.3346 1.72721,6.0379 3.85784,6.0379 2.13063,0 3.85785,-2.7033 3.85785,-6.0379 z"
         style="color:#000000;fill:#ff9955;fill-opacity:1;fill-rule:nonzero;stroke:none;stroke-width:0.91346008000000001;marker:none;visibility:visible;display:inline;overflow:visible;enable-background:accumulate" />
      <path
         style="color:#000000;fill:#ff9955;fill-opacity:1;fill-rule:nonzero;stroke:none;stroke-width:0.91346008000000001;marker:none;visibility:visible;display:inline;overflow:visible;enable-background:accumulate"
         d="m -498.01119,1695.8376 c 0,-3.3345 -1.72722,-4.2866 -3.85785,-4.2866 -2.13063,0 -3.85784,0.9521 -3.85784,4.2866 0,3.3346 1.72721,6.0379 3.85784,6.0379 2.13063,0 3.85785,-2.7033 3.85785,-6.0379 z"
         id="path3116"
         inkscape:connector-curvature="0"
         sodipodi:nodetypes="sssss" />
    </g>
    <path
       inkscape:export-ydpi="200"
       inkscape:export-xdpi="200"
       inkscape:export-filename="/home/max/www/baleineSVG/version_plus/images/donkey.png"
       sodipodi:nodetypes="scsscccccccscccscccccccsscscs"
       inkscape:connector-curvature="0"
       d="m 390.91966,224.56491 c 1.35866,-1.25786 2.62188,-2.19337 2.80716,-2.0789 0.18526,0.11447 0.47011,1.0971 0.63303,2.18342 0.31916,2.12851 0.86028,3.42685 1.42829,3.42685 0.19541,0 1.32472,-0.87165 2.50956,-1.9369 2.49116,-2.23982 2.38072,-2.30668 3.95694,2.39528 0.5816,1.73483 1.326,3.50798 1.65423,3.94015 0.6287,0.82784 0.79321,0.69628 3.39355,-2.7148 0.43813,-0.57469 0.55983,-0.57751 1.09171,-0.0249 0.32923,0.34209 0.92591,1.64856 1.32595,2.90327 1.41998,4.45344 2.33932,6.63603 2.79516,6.63603 l -3e-5,0 c 0.25408,0 0.0587,32.2644 0.0587,32.2644 0,0 -7.87483,-5.39941 -24.18193,-4.54436 -16.30709,-0.85505 -24.18192,4.54436 -24.18192,4.54436 0,0 -0.19535,-32.2644 0.0587,-32.2644 l -4e-5,0 c 0.45585,0 1.37519,-2.18259 2.79517,-6.63603 0.40003,-1.25471 0.99671,-2.56118 1.32594,-2.90327 0.53188,-0.55262 0.65359,-0.5498 1.09171,0.0249 2.60035,3.41108 2.76486,3.54264 3.39356,2.7148 0.32823,-0.43217 1.07263,-2.20532 1.65423,-3.94015 1.57622,-4.70196 1.46578,-4.6351 3.95693,-2.39528 1.18485,1.06525 2.31415,1.9369 2.50957,1.9369 0.56801,0 1.10913,-1.29834 1.42829,-3.42685 0.16291,-1.08632 0.44776,-2.06895 0.63302,-2.18342 0.18528,-0.11447 1.4485,0.82104 2.80716,2.0789 1.35867,1.25786 2.64076,2.28711 2.52765,2.28711 -0.11314,0 1.16899,-1.02925 2.52765,-2.28711 z"
       style="fill:#ffffff;fill-opacity:1;stroke:#ff9955;stroke-width:6;stroke-linecap:butt;stroke-linejoin:miter;stroke-opacity:1"
       id="crete"
       class="section"
       inkscape:label="#path3118" />
    <g
       inkscape:export-ydpi="200"
       inkscape:export-xdpi="200"
       inkscape:export-filename="/home/sarah/path11805.png"
       style="stroke-width:2;stroke-miterlimit:4;stroke-dasharray:none"
       id="g3126"
       transform="matrix(0.99451171,-0.10462531,0.10462531,0.99451171,-700.63894,-976.02946)"
       inkscape:transform-center-x="22.028959"
       inkscape:transform-center-y="-22.028962" />
    <g
       inkscape:transform-center-y="-22.028962"
       inkscape:transform-center-x="-22.028962"
       transform="matrix(-0.99451171,-0.10462531,-0.10462531,0.99451171,200.83896,-976.02946)"
       id="g3134"
       style="stroke-width:2;stroke-miterlimit:4;stroke-dasharray:none"
       inkscape:export-filename="/home/sarah/path11805.png"
       inkscape:export-xdpi="200"
       inkscape:export-ydpi="200" />
    <path
       sodipodi:nodetypes="ccscc"
       inkscape:connector-curvature="0"
       id="patarriere1"
       class="section"
       d="m 167.12289,546.62601 32.4629,-11.00384 c 20.10448,-6.16587 44.49724,15.22985 54.48268,47.78851 9.98549,32.55881 1.78244,63.95137 -18.32205,70.11724 l -31.06926,10.629"
       style="color:#000000;fill:#ffffff;fill-opacity:1;fill-rule:nonzero;stroke:#ff9955;stroke-width:6;stroke-linecap:butt;stroke-linejoin:miter;stroke-miterlimit:4;stroke-opacity:1;stroke-dashoffset:0;marker:none;visibility:visible;display:inline;overflow:visible;enable-background:accumulate"
       inkscape:label="#path3130"
       inkscape:export-filename="/home/max/www/baleineSVG/version_plus/images/donkey.png"
       inkscape:export-xdpi="200"
       inkscape:export-ydpi="200" />
    <path
       style="color:#000000;fill:#ffffff;fill-opacity:1;fill-rule:nonzero;stroke:#ff9955;stroke-width:6;stroke-linecap:butt;stroke-linejoin:miter;stroke-miterlimit:4;stroke-opacity:1;stroke-dashoffset:0;marker:none;visibility:visible;display:inline;overflow:visible;enable-background:accumulate"
       d="m 607.0911,546.62601 -32.4629,-11.00384 c -20.10448,-6.16587 -44.49724,15.22985 -54.48268,47.78851 -9.98549,32.55881 -1.78244,63.95137 18.32204,70.11724 l 31.06927,10.629"
       id="patarriere2"
       class="section"
       inkscape:connector-curvature="0"
       sodipodi:nodetypes="ccscc"
       inkscape:label="#path3138"
       inkscape:export-filename="/home/max/www/baleineSVG/version_plus/images/donkey.png"
       inkscape:export-xdpi="200"
       inkscape:export-ydpi="200" />
    <path
       sodipodi:type="arc"
       style="color:#000000;fill:#ffffff;fill-opacity:1;fill-rule:nonzero;stroke:#ff9955;stroke-width:3.61661761999999998;stroke-linecap:butt;stroke-linejoin:miter;stroke-miterlimit:4;stroke-opacity:1;stroke-dasharray:none;stroke-dashoffset:0;marker:none;visibility:visible;display:inline;overflow:visible;enable-background:accumulate"
       id="souspat1"
       class="section"
       sodipodi:cx="169.355"
       sodipodi:cy="1642.3101"
       sodipodi:rx="22.950994"
       sodipodi:ry="37.168671"
       d="m 192.30599,1642.3101 c 0,20.5276 -10.27551,37.1686 -22.95099,37.1686 -12.67549,0 -22.951,-16.641 -22.951,-37.1686 0,-20.5277 10.27551,-37.1687 22.951,-37.1687 12.67548,0 22.95099,16.641 22.95099,37.1687 z"
       transform="matrix(-1.5860914,0.48643998,-0.48643998,-1.5860914,1252.7096,3128.1752)"
       inkscape:label="#path3132"
       inkscape:export-filename="/home/max/www/baleineSVG/version_plus/images/donkey.png"
       inkscape:export-xdpi="200"
       inkscape:export-ydpi="200" />
    <path
       transform="matrix(1.5860914,0.48643998,0.48643998,-1.5860914,-478.4956,3128.1752)"
       d="m 192.30599,1642.3101 c 0,20.5276 -10.27551,37.1686 -22.95099,37.1686 -12.67549,0 -22.951,-16.641 -22.951,-37.1686 0,-20.5277 10.27551,-37.1687 22.951,-37.1687 12.67548,0 22.95099,16.641 22.95099,37.1687 z"
       sodipodi:ry="37.168671"
       sodipodi:rx="22.950994"
       sodipodi:cy="1642.3101"
       sodipodi:cx="169.355"
       id="souspat2"
       class="section"
       style="color:#000000;fill:#ffffff;fill-opacity:1;fill-rule:nonzero;stroke:#ff9955;stroke-width:3.61661761999999998;stroke-linecap:butt;stroke-linejoin:miter;stroke-miterlimit:4;stroke-opacity:1;stroke-dasharray:none;stroke-dashoffset:0;marker:none;visibility:visible;display:inline;overflow:visible;enable-background:accumulate"
       sodipodi:type="arc"
       inkscape:label="#path3140"
       inkscape:export-filename="/home/max/www/baleineSVG/version_plus/images/donkey.png"
       inkscape:export-xdpi="200"
       inkscape:export-ydpi="200" />
    <path
       inkscape:export-ydpi="200"
       inkscape:export-xdpi="200"
       style="fill:#ffffff;fill-opacity:1;stroke:#ff9955;stroke-width:6;stroke-miterlimit:4;stroke-dasharray:none"
       d="m 466.35271,259.56253 c 31.97771,-57.15949 27.68086,-43.82421 31.97771,-57.15949 4.2967,-13.33511 13.08669,-81.79493 13.82993,-87.72174 0.74322,-5.92681 2.63802,-16.78502 -19.44008,5.57809 -22.07811,22.36277 -36.62307,49.40295 -41.33215,71.25807 -4.70903,21.85495 -8.24482,47.7617 -3.9561,53.45741 4.28867,5.69604 18.92069,14.58766 18.92069,14.58766 z"
       id="oreille2"
       class="section"
       inkscape:connector-curvature="0"
       inkscape:label="#path3122"
       inkscape:export-filename="/home/max/www/baleineSVG/version_plus/images/donkey.png" />
    <path
       style="fill:#ffffff;fill-opacity:1;stroke:#ff9955;stroke-width:6;stroke-miterlimit:4;stroke-dasharray:none"
       d="m 300.8871,255.88645 c 1.73705,2.63805 2.55186,3.75704 4.61412,6.9471 0,0 14.48001,-9.19498 18.87122,-14.46448 4.3912,-5.26935 2.19429,-29.69004 -1.2961,-43.91189 -0.36115,-1.47153 -1.27435,-2.91622 -1.97007,-4.09568 -0.19354,0.27198 -0.44772,0.36082 -0.62213,0.72582 -0.51615,1.08011 -1.00083,2.60856 -1.55532,4.82149 -1.10898,4.42589 -2.59444,11.56968 -5.70284,23.38166 -0.6573,2.96901 -1.57933,5.92317 -2.69589,8.81348 -1.11656,2.89032 -2.44262,5.72867 -3.8883,8.45057 -1.44568,2.72191 -3.02134,5.36469 -4.66596,7.82845 -0.35643,0.53395 -0.72668,0.98421 -1.08873,1.50348 z"
       id="oreille1"
       class="section"
       inkscape:connector-curvature="0"
       inkscape:label="#path3178"
       inkscape:export-filename="/home/max/www/baleineSVG/version_plus/images/donkey.png"
       inkscape:export-xdpi="200"
       inkscape:export-ydpi="200" />
    <path
       style="fill:none;stroke:#ff9955;stroke-width:6;stroke-linecap:butt;stroke-linejoin:miter;stroke-opacity:1"
       d="m 295.30719,263.18209 5.85096,-7.55441"
       id="path3182"
       inkscape:connector-curvature="0"
       inkscape:export-filename="/home/max/www/baleineSVG/version_plus/images/donkey.png"
       inkscape:export-xdpi="200"
       inkscape:export-ydpi="200" />
    <path
       sodipodi:nodetypes="cscc"
       inkscape:connector-curvature="0"
       id="patavant2"
       class="section"
       d="m 489.98695,633.99979 c 1.42866,31.40189 -3.96032,47.53392 -44.61461,47.53392 -48.05761,0 -58.36981,-2.09682 -58.46668,-47.58601 31.38461,11.92064 66.72748,8.0082 103.08129,0.0514 z"
       style="fill:#ffffff;fill-opacity:1;stroke:#ff9955;stroke-width:6;stroke-linecap:butt;stroke-linejoin:miter;stroke-miterlimit:4;stroke-opacity:1;stroke-dasharray:none"
       inkscape:label="#path3154"
       inkscape:export-filename="/home/max/www/baleineSVG/version_plus/images/donkey.png"
       inkscape:export-xdpi="200"
       inkscape:export-ydpi="200" />
    <path
       style="fill:#ffffff;fill-opacity:1;stroke:#ff9955;stroke-width:6;stroke-linecap:butt;stroke-linejoin:miter;stroke-miterlimit:4;stroke-opacity:1;stroke-dasharray:none"
       d="m 387.18766,633.99979 c 1.42865,31.40189 -3.96032,47.53392 -44.61461,47.53392 -48.05762,0 -58.36982,-2.09682 -58.46669,-47.58601 31.38461,11.92064 66.72749,8.0082 103.0813,0.0514 z"
       id="patavant1"
       class="section"
       inkscape:connector-curvature="0"
       sodipodi:nodetypes="cscc"
       inkscape:label="#path3219"
       inkscape:export-filename="/home/max/www/baleineSVG/version_plus/images/donkey.png"
       inkscape:export-xdpi="200"
       inkscape:export-ydpi="200" />
    <path
       style="fill:none;stroke:#ff9955;stroke-width:6;stroke-linecap:butt;stroke-linejoin:miter;stroke-opacity:1"
       d="m 386.99631,634.30995 0,-89.76422"
       id="path3458"
       inkscape:connector-curvature="0"
       inkscape:export-filename="/home/max/www/baleineSVG/version_plus/images/donkey.png"
       inkscape:export-xdpi="200"
       inkscape:export-ydpi="200" />
  </g>
</svg>
