<?xml version="1.0" encoding="UTF-8" standalone="no"?>
<!-- Created with Inkscape (http://www.inkscape.org/) -->

<svg
   xmlns:dc="http://purl.org/dc/elements/1.1/"
   xmlns:cc="http://creativecommons.org/ns#"
   xmlns:rdf="http://www.w3.org/1999/02/22-rdf-syntax-ns#"
   xmlns:svg="http://www.w3.org/2000/svg"
   xmlns="http://www.w3.org/2000/svg"
   xmlns:sodipodi="http://sodipodi.sourceforge.net/DTD/sodipodi-0.dtd"
   xmlns:inkscape="http://www.inkscape.org/namespaces/inkscape"
   width="539.22852"
   height="515"
   id="svg3113"
   version="1.1"
   inkscape:version="0.48.5 r10040"
   sodipodi:docname="baleine.svg">
  <defs
     id="defs3115">
    <clipPath
       clipPathUnits="userSpaceOnUse"
       id="clipPath3780">
      <path
         sodipodi:type="arc"
         style="opacity:0.21052629;fill:#ffff00;fill-opacity:1;stroke:none"
         id="path3782"
         sodipodi:cx="-752.56366"
         sodipodi:cy="1039.2302"
         sodipodi:rx="69.700523"
         sodipodi:ry="154.55334"
         d="m -682.86314,1039.2302 a 69.700523,154.55334 0 1 1 -139.40104,0 69.700523,154.55334 0 1 1 139.40104,0 z"
         transform="matrix(0.97503563,-0.22204845,0.22204845,0.97503563,-261.66857,-127.01973)" />
    </clipPath>
    <clipPath
       clipPathUnits="userSpaceOnUse"
       id="clipPath3813">
      <path
         sodipodi:type="arc"
         style="fill:#007180;fill-opacity:1"
         id="path3815"
         sodipodi:cx="-917.21851"
         sodipodi:cy="59.382233"
         sodipodi:rx="70.710678"
         sodipodi:ry="57.578693"
         d="m -846.50783,59.382233 a 70.710678,57.578693 0 1 1 -141.42135,0 70.710678,57.578693 0 1 1 141.42135,0 z"
         transform="matrix(1,0,0,1.2280702,0,-26.6753)" />
    </clipPath>
    <clipPath
       clipPathUnits="userSpaceOnUse"
       id="clipPath3021">
      <path
         sodipodi:type="arc"
         style="fill:#007180;fill-opacity:1"
         id="path3023"
         sodipodi:cx="-917.21851"
         sodipodi:cy="59.382233"
         sodipodi:rx="70.710678"
         sodipodi:ry="57.578693"
         d="m -846.50783,59.382233 a 70.710678,57.578693 0 1 1 -141.42135,0 70.710678,57.578693 0 1 1 141.42135,0 z"
         transform="matrix(1,0,0,1.2280702,0,-26.6753)" />
    </clipPath>
    <clipPath
       clipPathUnits="userSpaceOnUse"
       id="clipPath3025">
      <path
         sodipodi:type="arc"
         style="fill:#007180;fill-opacity:1"
         id="path3027"
         sodipodi:cx="-917.21851"
         sodipodi:cy="59.382233"
         sodipodi:rx="70.710678"
         sodipodi:ry="57.578693"
         d="m -846.50783,59.382233 a 70.710678,57.578693 0 1 1 -141.42135,0 70.710678,57.578693 0 1 1 141.42135,0 z"
         transform="matrix(1,0,0,1.2280702,0,-26.6753)" />
    </clipPath>
  </defs>
  <sodipodi:namedview
     id="base"
     pagecolor="#ffffff"
     bordercolor="#666666"
     borderopacity="1.0"
     inkscape:pageopacity="0.0"
     inkscape:pageshadow="2"
     inkscape:zoom="0.63589511"
     inkscape:cx="845.34423"
     inkscape:cy="282.57361"
     inkscape:current-layer="layer1"
     inkscape:document-units="px"
     showgrid="false"
     inkscape:window-width="1600"
     inkscape:window-height="834"
     inkscape:window-x="0"
     inkscape:window-y="27"
     inkscape:window-maximized="1"
     fit-margin-top="0"
     fit-margin-left="0"
     fit-margin-right="0"
     fit-margin-bottom="0" />
  <metadata
     id="metadata3118">
    <rdf:RDF>
      <cc:Work
         rdf:about="">
        <dc:format>image/svg+xml</dc:format>
        <dc:type
           rdf:resource="http://purl.org/dc/dcmitype/StillImage" />
        <dc:title />
      </cc:Work>
    </rdf:RDF>
  </metadata>
  <g
     id="layer1"
     inkscape:label="Layer 1"
     inkscape:groupmode="layer"
     transform="translate(-47.972035,35.836891)">
    <path
       sodipodi:nodetypes="sssss"
       inkscape:connector-curvature="0"
       id="goutte3"
       class="section"
       d="m 346.73293,64.278362 c 45.30703,37.459998 48.56255,127.299328 58.05211,123.225368 9.48958,-4.07394 -3.17385,-48.80425 -28.28454,-99.907953 C 351.38981,36.492086 323.34073,-1.6330383 313.85117,2.4409087 304.3616,6.5148548 296.26928,22.554861 346.73293,64.278362 z"
       style="fill:#999999;fill-opacity:1"
       inkscape:label="#path3014" />
    <path
       style="fill:#999999;fill-opacity:1"
       d="m 324.76769,104.18329 c 51.4391,21.51774 70.09128,81.73796 78.81957,78.2195 8.72824,-3.51849 -11.52873,-32.59915 -45.24528,-64.95348 -33.71653,-32.354354 -68.12483,-55.730437 -76.85309,-52.211966 -8.72827,3.51848 -14.01485,14.979161 43.2788,38.945946 z"
       id="goutte2"
       class="section"
       inkscape:connector-curvature="0"
       sodipodi:nodetypes="sssss"
       inkscape:label="#path3017" />
    <path
       sodipodi:nodetypes="sssss"
       inkscape:connector-curvature="0"
       id="goutte4"
       class="section"
       d="m 384.65783,38.671898 c 32.48576,52.482133 9.3521,147.761352 19.63973,146.237382 10.28763,-1.524 11.21993,-52.16726 2.08234,-113.114915 -9.13759,-60.94766 -24.88485,-109.12005 -35.17247,-107.596071 -10.28764,1.523989 -22.73273,16.018242 13.4504,74.473604 z"
       style="fill:#999999;fill-opacity:1"
       inkscape:label="#path3019" />
    <path
       style="fill:#999999;fill-opacity:1"
       d="M 443.28467,70.140269 C 408.13744,117.16053 426.27779,205.23113 416.08954,203.49546 405.90128,201.75979 407.60071,155.32277 419.8853,99.775451 432.16988,44.228116 450.38771,0.60516373 460.57598,2.3408142 470.76423,4.076486 482.43215,17.768404 443.28467,70.140269 z"
       id="goutte5"
       class="section"
       inkscape:connector-curvature="0"
       sodipodi:nodetypes="sssss"
       inkscape:label="#path3023" />
    <path
       sodipodi:nodetypes="sssss"
       inkscape:connector-curvature="0"
       id="goutte6"
       class="section"
       d="m 466.30249,105.42758 c -44.79741,33.08425 -48.47296,95.98801 -57.79333,94.63875 -9.32036,-1.34923 3.38013,-34.391 28.36738,-73.80085 24.98723,-39.409846 52.79904,-70.264057 62.1194,-68.914822 9.32037,1.349243 17.20254,11.227197 -32.69345,48.076922 z"
       style="fill:#999999;fill-opacity:1"
       inkscape:label="#path3025" />
    <g
       transform="matrix(0.45823067,0,0,0.45823067,417.95701,-66.995273)"
       id="corps"
       class="section"
       style="fill:#999999"
       inkscape:label="#g3005">
      <path
         style="fill:#999999;fill-opacity:1;stroke:none"
         d="m 165.59375,124.5625 c -0.28352,-0.0135 -0.5721,0.18877 -0.8125,0.625 -8.06946,14.64253 -10.4453,48.4847 -18.4375,54.875 -8.16155,6.52571 -15.19617,13.90632 -18.3125,23.125 -8.49599,-3.751 -18.35257,-3.21007 -28.375,-1.1875 -9.820892,1.9819 -34.928961,-18.92076 -50.53125,-22.4375 -7.43712,-1.67633 23.397265,42.28927 27.0625,51.125 9.883529,23.82609 29.69463,37.60762 44.21875,30.78125 3.50245,-1.64616 7.34795,-3.34287 11.0625,-5.28125 -0.60589,2.04562 -0.9506,4.01107 -0.90625,5.78125 1.16942,46.6754 48.66968,116.64916 116.6875,148.0625 22.37341,10.33295 48.15999,15.5462 73.09375,18 -5.51637,13.48786 -9.55129,30.57414 -21.4375,49.5625 -4.3594,6.67129 47.78996,-10.02923 57.3125,-10.9375 25.67823,-2.44915 45.87901,-17.40837 45.09375,-33.4375 -0.0706,-1.44241 -0.12549,-2.97915 -0.1875,-4.5 2.10821,-0.11729 4.5227,-0.23551 6.40625,-0.34375 C 502.14241,422.93792 549.32082,377.80138 546.5625,313 543.93864,251.35755 481.19583,185.26638 403.875,180.65625 c -65.70541,-3.91758 -138.66684,28.84693 -173.03125,102 -1.34526,2.8637 -55.41928,-11.74904 -63.09375,-43.40625 2.02107,-0.95605 4.01253,-1.92245 5.90625,-2.8125 14.52412,-6.82637 18.25853,-31.6739 8.375,-55.5 -3.43615,-8.28349 -12.18467,-56.17269 -16.4375,-56.375 z"
         transform="matrix(2.3529349,0,0,2.3529349,-920.29586,64.445667)"
         id="corp"
         class="section"
         inkscape:label="#path2985"
         inkscape:connector-curvature="0" />
    </g>
    <path
       transform="matrix(0.45751033,-0.02568343,0.02568343,0.45751033,402.22149,-72.977924)"
       d="m 30,510.21933 c 0,5.91734 -21.4263729,10.71429 -47.857143,10.71429 -26.430771,0 -47.857144,-4.79695 -47.857144,-10.71429 0,-5.91734 21.426373,-10.71429 47.857144,-10.71429 C 8.5736271,499.50504 30,504.30199 30,510.21933 z"
       sodipodi:ry="10.714286"
       sodipodi:rx="47.857143"
       sodipodi:cy="510.21933"
       sodipodi:cx="-17.857143"
       id="haut"
       class="section"
       style="fill:#666666;fill-opacity:1"
       sodipodi:type="arc"
       inkscape:label="#path3034" />
    <path
       transform="matrix(0.02599033,-0.45749301,0.45749301,0.02599033,266.83714,-277.87739)"
       clip-path="url(#clipPath3813)"
       style="fill:#999999;fill-opacity:1"
       d="m -810.01167,110.71282 c 118.64588,48.80705 47.38954,302.04989 68.0987,293.15927 20.70916,-8.8906 -6.92631,-106.50587 -61.72556,-218.02983 C -858.43779,74.318318 -919.64945,-8.8824317 -940.35862,0.00816828 -961.06777,8.8987883 -928.22004,62.085744 -810.01167,110.71282 z"
       id="goutte1"
       class="section"
       inkscape:connector-curvature="0"
       sodipodi:nodetypes="sssss"
       inkscape:label="#path3809" />
    <path
       sodipodi:nodetypes="sssss"
       inkscape:connector-curvature="0"
       id="goutte7"
       class="section"
       d="m -810.01167,110.71282 c 118.64588,48.80705 47.38954,302.04989 68.0987,293.15927 20.70916,-8.8906 -6.92631,-106.50587 -61.72556,-218.02983 C -858.43779,74.318318 -919.64945,-8.8824317 -940.35862,0.00816828 -961.06777,8.8987883 -928.22004,62.085744 -810.01167,110.71282 z"
       style="fill:#999999;fill-opacity:1"
       clip-path="url(#clipPath3813)"
       transform="matrix(0.13980985,-0.4363812,-0.4363812,-0.13980985,669.00567,-274.64007)"
       inkscape:label="#path3817" />
    <path
       transform="matrix(-0.09711172,-0.44782214,-0.44782214,0.09711172,495.81955,-304.61809)"
       clip-path="url(#clipPath3813)"
       style="fill:#999999;fill-opacity:1"
       d="m -810.01167,110.71282 c 118.64588,48.80705 47.38954,302.04989 68.0987,293.15927 20.70916,-8.8906 -6.92631,-106.50587 -61.72556,-218.02983 C -858.43779,74.318318 -919.64945,-8.8824317 -940.35862,0.00816828 -961.06777,8.8987883 -928.22004,62.085744 -810.01167,110.71282 z"
       id="goutte8"
       class="section"
       inkscape:connector-curvature="0"
       sodipodi:nodetypes="sssss"
       inkscape:label="#path3819" />
    <path
       transform="matrix(0.400206,-0.2231827,0.2231827,0.400206,258.4414,16.356383)"
       d="m 286.88332,760.4281 c 0,70.85226 -49.74867,128.28937 -111.11678,128.28937 -61.3681,0 -111.116783,-57.43711 -111.116783,-128.28937 0,-70.85226 49.748683,-128.28937 111.116783,-128.28937 61.36811,0 111.11678,57.43711 111.11678,128.28937 z"
       sodipodi:ry="128.28937"
       sodipodi:rx="111.11678"
       sodipodi:cy="760.4281"
       sodipodi:cx="175.76654"
       id="path3821"
       style="fill:#ffffff;fill-opacity:1"
       sodipodi:type="arc" />
    <path
       sodipodi:type="arc"
       style="fill:#999999;fill-opacity:1"
       id="oeil"
       class="section"
       sodipodi:cx="175.76654"
       sodipodi:cy="760.4281"
       sodipodi:rx="111.11678"
       sodipodi:ry="128.28937"
       d="m 286.88332,760.4281 c 0,70.85226 -49.74867,128.28937 -111.11678,128.28937 -61.3681,0 -111.116783,-57.43711 -111.116783,-128.28937 0,-70.85226 49.748683,-128.28937 111.116783,-128.28937 61.36811,0 111.11678,57.43711 111.11678,128.28937 z"
       transform="matrix(0.13499363,-0.18738962,0.17144694,0.20930061,367.39005,141.65975)"
       inkscape:label="#path3823" />
    <path
       inkscape:connector-curvature="0"
       style="fill:#ffffff;fill-opacity:1"
       d="m 518.83793,239.1588 c -7.87492,0 -14.26246,6.18509 -14.26246,13.81851 0,4.68723 2.40465,8.84194 6.0859,11.34121 -1.32343,0.79546 -2.19091,2.13793 -2.19091,3.66584 0,2.44468 2.22115,4.4248 4.96892,4.4248 2.74777,0 4.98327,-1.98012 4.98327,-4.4248 0,-0.4178 -0.0789,-0.81968 -0.20049,-1.20285 0.20538,0.009 0.40819,0.0286 0.61577,0.0286 7.87488,0 14.26244,-6.1994 14.26244,-13.83283 0,-7.63341 -6.38756,-13.81851 -14.26244,-13.81851 z"
       id="path3839" />
    <path
       style="fill:none;stroke:#000000;stroke-width:0.53909343;stroke-linecap:butt;stroke-linejoin:miter;stroke-opacity:1"
       d="m 436.68928,354.22594 c 0,0 29.39945,50.4342 106.40388,35.67297"
       id="path3006"
       inkscape:connector-curvature="0"
       sodipodi:nodetypes="cc" />
  </g>
</svg>
