<?xml version="1.0" encoding="UTF-8" standalone="no"?>
<!-- Created with Inkscape (http://www.inkscape.org/) -->

<svg
   xmlns:dc="http://purl.org/dc/elements/1.1/"
   xmlns:cc="http://creativecommons.org/ns#"
   xmlns:rdf="http://www.w3.org/1999/02/22-rdf-syntax-ns#"
   xmlns:svg="http://www.w3.org/2000/svg"
   xmlns="http://www.w3.org/2000/svg"
   xmlns:sodipodi="http://sodipodi.sourceforge.net/DTD/sodipodi-0.dtd"
   xmlns:inkscape="http://www.inkscape.org/namespaces/inkscape"
   width="295.53177"
   height="252.70996"
   id="svg3313"
   version="1.1"
   inkscape:version="0.48.5 r10040"
   sodipodi:docname="couleur_ane.svg">
  <defs
     id="defs3315" />
  <sodipodi:namedview
     id="base"
     pagecolor="#ffffff"
     bordercolor="#666666"
     borderopacity="1.0"
     inkscape:pageopacity="0.0"
     inkscape:pageshadow="2"
     inkscape:zoom="0.63418639"
     inkscape:cx="429.01862"
     inkscape:cy="348.7384"
     inkscape:document-units="px"
     inkscape:current-layer="layer1"
     showgrid="false"
     fit-margin-top="0"
     fit-margin-left="0"
     fit-margin-right="0"
     fit-margin-bottom="0"
     inkscape:window-width="1600"
     inkscape:window-height="834"
     inkscape:window-x="0"
     inkscape:window-y="27"
     inkscape:window-maximized="1" />
  <metadata
     id="metadata3318">
    <rdf:RDF>
      <cc:Work
         rdf:about="">
        <dc:format>image/svg+xml</dc:format>
        <dc:type
           rdf:resource="http://purl.org/dc/dcmitype/StillImage" />
        <dc:title />
      </cc:Work>
    </rdf:RDF>
  </metadata>
  <g
     inkscape:label="Calque 1"
     inkscape:groupmode="layer"
     id="layer1"
     transform="translate(-69.376979,-408.86435)">
    <path
       sodipodi:type="arc"
       style="fill:#a1795f;fill-opacity:1;stroke:none"
       id="color13"
       sodipodi:cx="-126.42857"
       sodipodi:cy="28.089552"
       sodipodi:rx="19.285715"
       sodipodi:ry="19.285715"
       d="m -107.14286,28.089552 a 19.285715,19.285715 0 1 1 -38.57143,0 19.285715,19.285715 0 1 1 38.57143,0 z"
       transform="matrix(1.5055061,0,0,1.5055061,550.74259,183.76343)"
       inkscape:label="#path3076" />
    <path
       transform="matrix(1.5055061,0,0,1.5055061,557.43248,255.01462)"
       d="m -107.14286,28.089552 a 19.285715,19.285715 0 1 1 -38.57143,0 19.285715,19.285715 0 1 1 38.57143,0 z"
       sodipodi:ry="19.285715"
       sodipodi:rx="19.285715"
       sodipodi:cy="28.089552"
       sodipodi:cx="-126.42857"
       id="color14"
       style="fill:#b8a27d;fill-opacity:1;stroke:none"
       sodipodi:type="arc"
       inkscape:label="#path3078" />
    <path
       sodipodi:type="arc"
       style="fill:#5e4332;fill-opacity:1;stroke:none"
       id="color15"
       sodipodi:cx="-126.42857"
       sodipodi:cy="28.089552"
       sodipodi:rx="19.285715"
       sodipodi:ry="19.285715"
       d="m -107.14286,28.089552 a 19.285715,19.285715 0 1 1 -38.57143,0 19.285715,19.285715 0 1 1 38.57143,0 z"
       transform="matrix(1.5055061,0,0,1.5055061,550.74258,113.22492)"
       inkscape:label="#path3080" />
    <path
       transform="matrix(1.5055061,0,0,1.5055061,560.77743,320.42477)"
       d="m -107.14286,28.089552 a 19.285715,19.285715 0 1 1 -38.57143,0 19.285715,19.285715 0 1 1 38.57143,0 z"
       sodipodi:ry="19.285715"
       sodipodi:rx="19.285715"
       sodipodi:cy="28.089552"
       sodipodi:cx="-126.42857"
       id="color16"
       style="fill:#896555;fill-opacity:1;stroke:none"
       sodipodi:type="arc"
       inkscape:label="#path3082" />
    <path
       transform="matrix(1.5055061,0,0,1.5055061,565.30875,390.51463)"
       d="m -107.14286,28.089552 a 19.285715,19.285715 0 1 1 -38.57143,0 19.285715,19.285715 0 1 1 38.57143,0 z"
       sodipodi:ry="19.285715"
       sodipodi:rx="19.285715"
       sodipodi:cy="28.089552"
       sodipodi:cx="-126.42857"
       id="color9"
       style="fill:#ff0000;fill-opacity:1;stroke:none"
       sodipodi:type="arc"
       inkscape:label="#path3237" />
    <path
       sodipodi:type="arc"
       style="fill:#ffbaba;fill-opacity:1;stroke:none"
       id="color10"
       sodipodi:cx="-126.42857"
       sodipodi:cy="28.089552"
       sodipodi:rx="19.285715"
       sodipodi:ry="19.285715"
       d="m -107.14286,28.089552 a 19.285715,19.285715 0 1 1 -38.57143,0 19.285715,19.285715 0 1 1 38.57143,0 z"
       transform="matrix(1.5055061,0,0,1.5055061,627.2395,254.2902)"
       inkscape:label="#path3239" />
    <path
       sodipodi:type="arc"
       style="fill:#ffff00;fill-opacity:1;stroke:none"
       id="color5"
       sodipodi:cx="-126.42857"
       sodipodi:cy="28.089552"
       sodipodi:rx="19.285715"
       sodipodi:ry="19.285715"
       d="m -107.14286,28.089552 a 19.285715,19.285715 0 1 1 -38.57143,0 19.285715,19.285715 0 1 1 38.57143,0 z"
       transform="matrix(1.5055061,0,0,1.5055061,426.09781,390.68155)"
       inkscape:label="#path3247" />
    <path
       transform="matrix(1.5055061,0,0,1.5055061,490.10405,259.09195)"
       d="m -107.14286,28.089552 a 19.285715,19.285715 0 1 1 -38.57143,0 19.285715,19.285715 0 1 1 38.57143,0 z"
       sodipodi:ry="19.285715"
       sodipodi:rx="19.285715"
       sodipodi:cy="28.089552"
       sodipodi:cx="-126.42857"
       id="color6"
       style="fill:#ffeeaa;fill-opacity:1;stroke:none"
       sodipodi:type="arc"
       inkscape:label="#path3249" />
    <path
       sodipodi:type="arc"
       style="fill:#aa8800;fill-opacity:1;stroke:none"
       id="color7"
       sodipodi:cx="-126.42857"
       sodipodi:cy="28.089552"
       sodipodi:rx="19.285715"
       sodipodi:ry="19.285715"
       d="m -107.14286,28.089552 a 19.285715,19.285715 0 1 1 -38.57143,0 19.285715,19.285715 0 1 1 38.57143,0 z"
       transform="matrix(1.5055061,0,0,1.5055061,417.22369,254.87014)"
       inkscape:label="#path3251" />
    <path
       transform="matrix(1.5055061,0,0,1.5055061,420.39656,329.32141)"
       d="m -107.14286,28.089552 a 19.285715,19.285715 0 1 1 -38.57143,0 19.285715,19.285715 0 1 1 38.57143,0 z"
       sodipodi:ry="19.285715"
       sodipodi:rx="19.285715"
       sodipodi:cy="28.089552"
       sodipodi:cx="-126.42857"
       id="color8"
       style="fill:#d4aa00;fill-opacity:1;stroke:none"
       sodipodi:type="arc"
       inkscape:label="#path3253" />
    <path
       transform="matrix(1.5055061,0,0,1.5055061,289.86571,590.73207)"
       d="m -107.14286,28.089552 a 19.285715,19.285715 0 1 1 -38.57143,0 19.285715,19.285715 0 1 1 38.57143,0 z"
       sodipodi:ry="19.285715"
       sodipodi:rx="19.285715"
       sodipodi:cy="28.089552"
       sodipodi:cx="-126.42857"
       id="color1"
       style="fill:#729fcf;fill-opacity:1;stroke:none"
       sodipodi:type="arc"
       inkscape:label="#path3263" />
    <path
       sodipodi:type="arc"
       style="fill:#73d216;fill-opacity:1;stroke:none"
       id="color2"
       sodipodi:cx="-126.42857"
       sodipodi:cy="28.089552"
       sodipodi:rx="19.285715"
       sodipodi:ry="19.285715"
       d="m -107.14286,28.089552 a 19.285715,19.285715 0 1 1 -38.57143,0 19.285715,19.285715 0 1 1 38.57143,0 z"
       transform="matrix(1.5055061,0,0,1.5055061,354.1889,527.28092)"
       inkscape:label="#path3265" />
    <path
       sodipodi:type="arc"
       style="fill:#c17d11;fill-opacity:1;stroke:none"
       id="color4"
       sodipodi:cx="-126.42857"
       sodipodi:cy="28.089552"
       sodipodi:rx="19.285715"
       sodipodi:ry="19.285715"
       d="m -107.14286,28.089552 a 19.285715,19.285715 0 1 1 -38.57143,0 19.285715,19.285715 0 1 1 38.57143,0 z"
       transform="matrix(1.5055061,0,0,1.5055061,493.98278,458.62657)"
       inkscape:label="#path3269" />
    <path
       d="m -94,195.87744 a 38,38 0 1 1 -76,0 38,38 0 1 1 76,0 z"
       sodipodi:ry="38"
       sodipodi:rx="38"
       sodipodi:cy="195.87744"
       sodipodi:cx="-132"
       id="couleur4"
       style="fill:#00ff00;fill-opacity:1;stroke:none"
       sodipodi:type="arc"
       transform="matrix(0,0.76407895,-0.76407895,0,314.46649,531.38639)"
       inkscape:label="#path3032" />
    <path
       d="m -94,195.87744 a 38,38 0 1 1 -76,0 38,38 0 1 1 76,0 z"
       sodipodi:ry="38"
       sodipodi:rx="38"
       sodipodi:cy="195.87744"
       sodipodi:cx="-132"
       id="couleur2"
       style="fill:#ff6600;fill-opacity:1;stroke:none"
       sodipodi:type="arc"
       transform="matrix(0,0.76407895,-0.76407895,0,456.98902,731.59024)"
       inkscape:label="#path3036" />
    <path
       sodipodi:type="arc"
       style="fill:#00ffff;fill-opacity:1;stroke:none"
       id="couleur5"
       sodipodi:cx="-132"
       sodipodi:cy="195.87744"
       sodipodi:rx="38"
       sodipodi:ry="38"
       d="m -94,195.87744 a 38,38 0 1 1 -76,0 38,38 0 1 1 76,0 z"
       transform="matrix(0,0.76407895,-0.76407895,0,246.50982,533.75162)"
       inkscape:label="#path3038" />
    <path
       transform="matrix(0,0.76407895,-0.76407895,0,244.39704,467.91725)"
       sodipodi:type="arc"
       style="fill:#008080;fill-opacity:1;stroke:none"
       id="couleur6"
       sodipodi:cx="-132"
       sodipodi:cy="195.87744"
       sodipodi:rx="38"
       sodipodi:ry="38"
       d="m -94,195.87744 a 38,38 0 1 1 -76,0 38,38 0 1 1 76,0 z"
       inkscape:label="#path3040" />
    <path
       transform="matrix(0,0.76407895,-0.76407895,0,244.43106,396.24608)"
       d="m -94,195.87744 a 38,38 0 1 1 -76,0 38,38 0 1 1 76,0 z"
       sodipodi:ry="38"
       sodipodi:rx="38"
       sodipodi:cy="195.87744"
       sodipodi:cx="-132"
       id="couleur7"
       style="fill:#005660;fill-opacity:1;stroke:none"
       sodipodi:type="arc"
       inkscape:label="#path3042" />
    <path
       sodipodi:type="arc"
       style="fill:#000000;fill-opacity:1;stroke:none"
       id="couleur8"
       sodipodi:cx="-132"
       sodipodi:cy="195.87744"
       sodipodi:rx="38"
       sodipodi:ry="38"
       d="m -94,195.87744 a 38,38 0 1 1 -76,0 38,38 0 1 1 76,0 z"
       transform="matrix(0,0.76407895,-0.76407895,0,171.4236,318.87461)"
       inkscape:label="#path3812" />
    <rect
       style="fill:#d3d7cf;fill-opacity:1;stroke:none"
       id="rect3140"
       width="114.55129"
       height="801.85907"
       x="763.07446"
       y="-663.70746"
       ry="4.0838394"
       transform="matrix(0,1,-1,0,0,0)" />
    <path
       transform="matrix(0,0.69596087,-0.69596087,0,31.846343,832.94653)"
       d="m -236.17368,16.891739 a 41.719299,41.719299 0 1 1 -83.43859,0 41.719299,41.719299 0 1 1 83.43859,0 z"
       sodipodi:ry="41.719299"
       sodipodi:rx="41.719299"
       sodipodi:cy="16.891739"
       sodipodi:cx="-277.89297"
       id="couleur3-5"
       style="fill:#ffffff;fill-opacity:1;stroke:none"
       sodipodi:type="arc"
       inkscape:label="#path3134" />
    <path
       transform="matrix(0,0.69596087,-0.69596087,0,454.22134,557.54585)"
       d="m -236.17368,16.891739 a 41.719299,41.719299 0 1 1 -83.43859,0 41.719299,41.719299 0 1 1 83.43859,0 z"
       sodipodi:ry="41.719299"
       sodipodi:rx="41.719299"
       sodipodi:cy="16.891739"
       sodipodi:cx="-277.89297"
       id="couleur5-2"
       style="fill:#ffd5d5;fill-opacity:1;stroke:none"
       sodipodi:type="arc"
       inkscape:label="#path3138" />
    <path
       inkscape:label="#path3138"
       sodipodi:type="arc"
       style="fill:#fce94f;fill-opacity:1;stroke:none"
       id="couleur6-1"
       sodipodi:cx="-277.89297"
       sodipodi:cy="16.891739"
       sodipodi:rx="41.719299"
       sodipodi:ry="41.719299"
       d="m -236.17368,16.891739 a 41.719299,41.719299 0 1 1 -83.43859,0 41.719299,41.719299 0 1 1 83.43859,0 z"
       transform="matrix(0,0.69596087,-0.69596087,0,246.26943,821.51024)" />
    <path
       inkscape:label="#path3032"
       transform="matrix(0,0.76407895,-0.76407895,0,310.19786,466.50455)"
       sodipodi:type="arc"
       style="fill:#008000;fill-opacity:1;stroke:none"
       id="path3061"
       sodipodi:cx="-132"
       sodipodi:cy="195.87744"
       sodipodi:rx="38"
       sodipodi:ry="38"
       d="m -94,195.87744 a 38,38 0 1 1 -76,0 38,38 0 1 1 76,0 z" />
    <path
       d="m -94,195.87744 a 38,38 0 1 1 -76,0 38,38 0 1 1 76,0 z"
       sodipodi:ry="38"
       sodipodi:rx="38"
       sodipodi:cy="195.87744"
       sodipodi:cx="-132"
       id="path3063"
       style="fill:#25a82b;fill-opacity:1;stroke:none"
       sodipodi:type="arc"
       transform="matrix(0,0.76407895,-0.76407895,0,307.64132,603.30158)"
       inkscape:label="#path3032" />
    <path
       sodipodi:type="arc"
       style="fill:#e5e300;fill-opacity:1;stroke:none"
       id="path3835"
       sodipodi:cx="-126.42857"
       sodipodi:cy="28.089552"
       sodipodi:rx="19.285715"
       sodipodi:ry="19.285715"
       d="m -107.14286,28.089552 a 19.285715,19.285715 0 1 1 -38.57143,0 19.285715,19.285715 0 1 1 38.57143,0 z"
       transform="matrix(1.5055061,0,0,1.5055061,423.86784,522.24949)"
       inkscape:label="#path3247" />
    <path
       sodipodi:type="arc"
       style="fill:#ad7fa8;fill-opacity:1;stroke:none"
       id="path3850"
       sodipodi:cx="-132"
       sodipodi:cy="195.87744"
       sodipodi:rx="38"
       sodipodi:ry="38"
       d="m -94,195.87744 a 38,38 0 1 1 -76,0 38,38 0 1 1 76,0 z"
       transform="matrix(0,0.76407895,-0.76407895,0,595.49937,727.75858)"
       inkscape:label="#path3038" />
    <path
       sodipodi:type="arc"
       style="fill:#3465a4;fill-opacity:1;stroke:none"
       id="path3854"
       sodipodi:cx="-132"
       sodipodi:cy="195.87744"
       sodipodi:rx="38"
       sodipodi:ry="38"
       d="m -94,195.87744 a 38,38 0 1 1 -76,0 38,38 0 1 1 76,0 z"
       transform="matrix(0,0.76407895,-0.76407895,0,247.6248,669.77949)"
       inkscape:label="#path3038" />
    <path
       sodipodi:type="arc"
       style="fill:#8ae234;fill-opacity:1;stroke:none"
       id="path3858"
       sodipodi:cx="-132"
       sodipodi:cy="195.87744"
       sodipodi:rx="38"
       sodipodi:ry="38"
       d="m -94,195.87744 a 38,38 0 1 1 -76,0 38,38 0 1 1 76,0 z"
       transform="matrix(0,0.76407895,-0.76407895,0,313.40877,732.21851)"
       inkscape:label="#path3038" />
    <path
       sodipodi:type="arc"
       style="fill:#edd400;fill-opacity:1;stroke:none"
       id="path3862"
       sodipodi:cx="-132"
       sodipodi:cy="195.87744"
       sodipodi:rx="38"
       sodipodi:ry="38"
       d="m -94,195.87744 a 38,38 0 1 1 -76,0 38,38 0 1 1 76,0 z"
       transform="matrix(0,0.76407895,-0.76407895,0,381.4227,601.76555)"
       inkscape:label="#path3038" />
    <path
       sodipodi:type="arc"
       style="fill:#cdff58;fill-opacity:1;stroke:none"
       id="path3864"
       sodipodi:cx="-132"
       sodipodi:cy="195.87744"
       sodipodi:rx="38"
       sodipodi:ry="38"
       d="m -94,195.87744 a 38,38 0 1 1 -76,0 38,38 0 1 1 76,0 z"
       transform="matrix(0,0.76407895,-0.76407895,0,307.83386,401.06869)"
       inkscape:label="#path3038" />
    <path
       sodipodi:type="arc"
       style="fill:#fcaf3e;fill-opacity:1;stroke:none"
       id="path3866"
       sodipodi:cx="-132"
       sodipodi:cy="195.87744"
       sodipodi:rx="38"
       sodipodi:ry="38"
       d="m -94,195.87744 a 38,38 0 1 1 -76,0 38,38 0 1 1 76,0 z"
       transform="matrix(0,0.76407895,-0.76407895,0,455.01156,533.75162)"
       inkscape:label="#path3038" />
    <path
       sodipodi:type="arc"
       style="fill:#ce5c00;fill-opacity:1;stroke:none"
       id="path3868"
       sodipodi:cx="-132"
       sodipodi:cy="195.87744"
       sodipodi:rx="38"
       sodipodi:ry="38"
       d="m -94,195.87744 a 38,38 0 1 1 -76,0 38,38 0 1 1 76,0 z"
       transform="matrix(0,0.76407895,-0.76407895,0,455.01157,668.66451)"
       inkscape:label="#path3038" />
    <path
       sodipodi:type="arc"
       style="fill:#204a87;fill-opacity:1;stroke:none"
       id="path3872"
       sodipodi:cx="-132"
       sodipodi:cy="195.87744"
       sodipodi:rx="38"
       sodipodi:ry="38"
       d="m -94,195.87744 a 38,38 0 1 1 -76,0 38,38 0 1 1 76,0 z"
       transform="matrix(0,0.76407895,-0.76407895,0,247.62481,602.88053)"
       inkscape:label="#path3038" />
    <path
       inkscape:label="#path3038"
       transform="matrix(0,0.76407895,-0.76407895,0,595.49937,660.85964)"
       d="m -94,195.87744 a 38,38 0 1 1 -76,0 38,38 0 1 1 76,0 z"
       sodipodi:ry="38"
       sodipodi:rx="38"
       sodipodi:cy="195.87744"
       sodipodi:cx="-132"
       id="path3874"
       style="fill:#75507b;fill-opacity:1;stroke:none"
       sodipodi:type="arc" />
    <path
       sodipodi:type="arc"
       style="fill:#5c3566;fill-opacity:1;stroke:none"
       id="path3876"
       sodipodi:cx="-132"
       sodipodi:cy="195.87744"
       sodipodi:rx="38"
       sodipodi:ry="38"
       d="m -94,195.87744 a 38,38 0 1 1 -76,0 38,38 0 1 1 76,0 z"
       transform="matrix(0,0.76407895,-0.76407895,0,595.49937,596.19064)"
       inkscape:label="#path3038" />
    <path
       sodipodi:type="arc"
       style="fill:#555753;fill-opacity:1;stroke:none"
       id="path3882"
       sodipodi:cx="-132"
       sodipodi:cy="195.87744"
       sodipodi:rx="38"
       sodipodi:ry="38"
       d="m -94,195.87744 a 38,38 0 1 1 -76,0 38,38 0 1 1 76,0 z"
       transform="matrix(0,0.76407895,-0.76407895,0,167.34606,460.16277)"
       inkscape:label="#path3038" />
    <path
       sodipodi:type="arc"
       style="fill:#8f5902;fill-opacity:1;stroke:none"
       id="path3884"
       sodipodi:cx="-132"
       sodipodi:cy="195.87744"
       sodipodi:rx="38"
       sodipodi:ry="38"
       d="m -94,195.87744 a 38,38 0 1 1 -76,0 38,38 0 1 1 76,0 z"
       transform="matrix(0,0.76407895,-0.76407895,0,437.17184,259.46591)"
       inkscape:label="#path3038" />
    <path
       sodipodi:type="arc"
       style="fill:#babdb6;fill-opacity:1;stroke:none"
       id="path3886"
       sodipodi:cx="-132"
       sodipodi:cy="195.87744"
       sodipodi:rx="38"
       sodipodi:ry="38"
       d="m -94,195.87744 a 38,38 0 1 1 -76,0 38,38 0 1 1 76,0 z"
       transform="matrix(0,0.76407895,-0.76407895,0,164.00111,602.88054)"
       inkscape:label="#path3038" />
    <path
       sodipodi:type="arc"
       style="fill:#ef2929;fill-opacity:1;stroke:none"
       id="path3888"
       sodipodi:cx="-132"
       sodipodi:cy="195.87744"
       sodipodi:rx="38"
       sodipodi:ry="38"
       d="m -94,195.87744 a 38,38 0 1 1 -76,0 38,38 0 1 1 76,0 z"
       transform="matrix(0,0.76407895,-0.76407895,0,521.28291,732.64919)"
       inkscape:label="#path3038" />
    <path
       sodipodi:type="arc"
       style="fill:#cc0000;fill-opacity:1;stroke:none"
       id="path3890"
       sodipodi:cx="-132"
       sodipodi:cy="195.87744"
       sodipodi:rx="38"
       sodipodi:ry="38"
       d="m -94,195.87744 a 38,38 0 1 1 -76,0 38,38 0 1 1 76,0 z"
       transform="matrix(0,0.76407895,-0.76407895,0,525.25547,661.97461)"
       inkscape:label="#path3038" />
    <path
       sodipodi:type="arc"
       style="fill:#a40000;fill-opacity:1;stroke:none"
       id="path3892"
       sodipodi:cx="-132"
       sodipodi:cy="195.87744"
       sodipodi:rx="38"
       sodipodi:ry="38"
       d="m -94,195.87744 a 38,38 0 1 1 -76,0 38,38 0 1 1 76,0 z"
       transform="matrix(0,0.76407895,-0.76407895,0,525.25546,599.5356)"
       inkscape:label="#path3038" />
    <path
       sodipodi:type="arc"
       style="fill:#d3d7cf;fill-opacity:1;stroke:none"
       id="path3894"
       sodipodi:cx="-132"
       sodipodi:cy="195.87744"
       sodipodi:rx="38"
       sodipodi:ry="38"
       d="m -94,195.87744 a 38,38 0 1 1 -76,0 38,38 0 1 1 76,0 z"
       transform="matrix(0,0.76407895,-0.76407895,0,166.23107,667.54953)"
       inkscape:label="#path3038" />
    <path
       sodipodi:type="arc"
       style="fill:#888a85;fill-opacity:1;stroke:none"
       id="path3896"
       sodipodi:cx="-132"
       sodipodi:cy="195.87744"
       sodipodi:rx="38"
       sodipodi:ry="38"
       d="m -94,195.87744 a 38,38 0 1 1 -76,0 38,38 0 1 1 76,0 z"
       transform="matrix(0,0.76407895,-0.76407895,0,167.34606,532.63664)"
       inkscape:label="#path3038" />
    <path
       sodipodi:type="arc"
       style="fill:#2e3436;fill-opacity:1;stroke:none"
       id="path3898"
       sodipodi:cx="-132"
       sodipodi:cy="195.87744"
       sodipodi:rx="38"
       sodipodi:ry="38"
       d="m -94,195.87744 a 38,38 0 1 1 -76,0 38,38 0 1 1 76,0 z"
       transform="matrix(0,0.76407895,-0.76407895,0,171.80599,391.03385)"
       inkscape:label="#path3038" />
    <path
       sodipodi:type="arc"
       style="fill:#c17d11;fill-opacity:1;stroke:none"
       id="path3910"
       sodipodi:cx="-132"
       sodipodi:cy="195.87744"
       sodipodi:rx="38"
       sodipodi:ry="38"
       d="m -94,195.87744 a 38,38 0 1 1 -76,0 38,38 0 1 1 76,0 z"
       transform="matrix(0,0.76407895,-0.76407895,0,439.40181,338.62966)"
       inkscape:label="#path3038" />
    <path
       sodipodi:type="arc"
       style="fill:#e9b96e;fill-opacity:1;stroke:none"
       id="path3880"
       sodipodi:cx="-132"
       sodipodi:cy="195.87744"
       sodipodi:rx="38"
       sodipodi:ry="38"
       d="m -94,195.87744 a 38,38 0 1 1 -76,0 38,38 0 1 1 76,0 z"
       transform="matrix(0,0.76407895,-0.76407895,0,444.97672,470.19761)"
       inkscape:label="#path3038" />
    <path
       inkscape:label="#path3082"
       sodipodi:type="arc"
       style="fill:#ff00ff;fill-opacity:1;stroke:none"
       id="path3912"
       sodipodi:cx="-126.42857"
       sodipodi:cy="28.089552"
       sodipodi:rx="19.285715"
       sodipodi:ry="19.285715"
       d="m -107.14286,28.089552 a 19.285715,19.285715 0 1 1 -38.57143,0 19.285715,19.285715 0 1 1 38.57143,0 z"
       transform="matrix(1.5055061,0,0,1.5055061,633.25135,391.78365)" />
    <path
       inkscape:label="#path3040"
       d="m -94,195.87744 a 38,38 0 1 1 -76,0 38,38 0 1 1 76,0 z"
       sodipodi:ry="38"
       sodipodi:rx="38"
       sodipodi:cy="195.87744"
       sodipodi:cx="-132"
       id="path3914"
       style="fill:#0000ff;fill-opacity:1;stroke:none"
       sodipodi:type="arc"
       transform="matrix(0,0.76407895,-0.76407895,0,243.28205,325.19948)" />
    <path
       transform="matrix(0,0.76407895,-0.76407895,0,243.28205,249.38066)"
       sodipodi:type="arc"
       style="fill:#000080;fill-opacity:1;stroke:none"
       id="path3916"
       sodipodi:cx="-132"
       sodipodi:cy="195.87744"
       sodipodi:rx="38"
       sodipodi:ry="38"
       d="m -94,195.87744 a 38,38 0 1 1 -76,0 38,38 0 1 1 76,0 z"
       inkscape:label="#path3040" />
    <path
       inkscape:label="#path3038"
       transform="matrix(0,0.76407895,-0.76407895,0,307.83386,331.93977)"
       d="m -94,195.87744 a 38,38 0 1 1 -76,0 38,38 0 1 1 76,0 z"
       sodipodi:ry="38"
       sodipodi:rx="38"
       sodipodi:cy="195.87744"
       sodipodi:cx="-132"
       id="path3918"
       style="fill:#08be06;fill-opacity:1;stroke:none"
       sodipodi:type="arc" />
    <path
       sodipodi:type="arc"
       style="fill:#005d00;fill-opacity:1;stroke:none"
       id="path3920"
       sodipodi:cx="-132"
       sodipodi:cy="195.87744"
       sodipodi:rx="38"
       sodipodi:ry="38"
       d="m -94,195.87744 a 38,38 0 1 1 -76,0 38,38 0 1 1 76,0 z"
       transform="matrix(0,0.76407895,-0.76407895,0,310.06383,250.54604)"
       inkscape:label="#path3038" />
    <path
       inkscape:label="#path3239"
       transform="matrix(1.5055061,0,0,1.5055061,627.2395,187.39125)"
       d="m -107.14286,28.089552 a 19.285715,19.285715 0 1 1 -38.57143,0 19.285715,19.285715 0 1 1 38.57143,0 z"
       sodipodi:ry="19.285715"
       sodipodi:rx="19.285715"
       sodipodi:cy="28.089552"
       sodipodi:cx="-126.42857"
       id="path3922"
       style="fill:#ff7cff;fill-opacity:1;stroke:none"
       sodipodi:type="arc" />
    <path
       sodipodi:type="arc"
       style="fill:#5c0266;fill-opacity:1;stroke:none"
       id="path3924"
       sodipodi:cx="-126.42857"
       sodipodi:cy="28.089552"
       sodipodi:rx="19.285715"
       sodipodi:ry="19.285715"
       d="m -107.14286,28.089552 a 19.285715,19.285715 0 1 1 -38.57143,0 19.285715,19.285715 0 1 1 38.57143,0 z"
       transform="matrix(1.5055061,0,0,1.5055061,627.2395,114.91738)"
       inkscape:label="#path3239" />
    <path
       inkscape:label="#path3247"
       transform="matrix(1.5055061,0,0,1.5055061,413.833,187.75472)"
       d="m -107.14286,28.089552 a 19.285715,19.285715 0 1 1 -38.57143,0 19.285715,19.285715 0 1 1 38.57143,0 z"
       sodipodi:ry="19.285715"
       sodipodi:rx="19.285715"
       sodipodi:cy="28.089552"
       sodipodi:cx="-126.42857"
       id="path3926"
       style="fill:#cdff58;fill-opacity:1;stroke:none"
       sodipodi:type="arc" />
    <path
       sodipodi:type="arc"
       style="fill:#ffe800;fill-opacity:1;stroke:none"
       id="path3928"
       sodipodi:cx="-126.42857"
       sodipodi:cy="28.089552"
       sodipodi:rx="19.285715"
       sodipodi:ry="19.285715"
       d="m -107.14286,28.089552 a 19.285715,19.285715 0 1 1 -38.57143,0 19.285715,19.285715 0 1 1 38.57143,0 z"
       transform="matrix(1.5055061,0,0,1.5055061,413.833,108.59096)"
       inkscape:label="#path3247" />
  </g>
</svg>
