<?xml version="1.0" encoding="UTF-8" standalone="no"?>
<!-- Created with Inkscape (http://www.inkscape.org/) -->

<svg
   xmlns:dc="http://purl.org/dc/elements/1.1/"
   xmlns:cc="http://creativecommons.org/ns#"
   xmlns:rdf="http://www.w3.org/1999/02/22-rdf-syntax-ns#"
   xmlns:svg="http://www.w3.org/2000/svg"
   xmlns="http://www.w3.org/2000/svg"
   xmlns:sodipodi="http://sodipodi.sourceforge.net/DTD/sodipodi-0.dtd"
   xmlns:inkscape="http://www.inkscape.org/namespaces/inkscape"
   id="svg4271"
   version="1.1"
   inkscape:version="0.48.5 r10040"
   sodipodi:docname="palette.svg"
   viewBox="0 0 400 413.91589"
   width="100%"
   height="100%"
   >
  <defs
     id="defs4273" />
  <sodipodi:namedview
     id="base"
     pagecolor="#ffffff"
     bordercolor="#666666"
     borderopacity="1.0"
     inkscape:pageopacity="0.0"
     inkscape:pageshadow="2"
     inkscape:zoom="0.5803938"
     inkscape:cx="181.93721"
     inkscape:cy="163.24404"
     inkscape:document-units="px"
     inkscape:current-layer="layer1"
     showgrid="false"
     fit-margin-top="0"
     fit-margin-left="0"
     fit-margin-right="0"
     fit-margin-bottom="0"
     inkscape:window-width="1600"
     inkscape:window-height="834"
     inkscape:window-x="0"
     inkscape:window-y="27"
     inkscape:window-maximized="1" />
  <metadata
     id="metadata4276">
    <rdf:RDF>
      <cc:Work
         rdf:about="">
        <dc:format>image/svg+xml</dc:format>
        <dc:type
           rdf:resource="http://purl.org/dc/dcmitype/StillImage" />
        <dc:title />
      </cc:Work>
    </rdf:RDF>
  </metadata>
  <g
     inkscape:label="Calque 1"
     inkscape:groupmode="layer"
     id="layer1"
     transform="translate(-490.32065,-221.58179)">
    <rect
       style="opacity:0;fill:#ffffff;fill-opacity:1;stroke:none"
       id="rect3045"
       width="400"
       height="413.91589"
       x="490.32065"
       y="221.58179" />
    <path
       inkscape:label="#path3239"
       transform="matrix(1.1901234,0,0,1.1901234,728.30064,419.99745)"
       d="m -107.14286,28.089552 c 0,10.651206 -8.63451,19.285715 -19.28571,19.285715 -10.65121,0 -19.28572,-8.634509 -19.28572,-19.285715 0,-10.651206 8.63451,-19.2857152 19.28572,-19.2857152 10.6512,0 19.28571,8.6345092 19.28571,19.2857152 z"
       sodipodi:ry="19.285715"
       sodipodi:rx="19.285715"
       sodipodi:cy="28.089552"
       sodipodi:cx="-126.42857"
       id="orange4"
       class="color"
       style="fill:#ff6600;fill-opacity:1;stroke:#000000"
       sodipodi:type="arc" />
    <path
       sodipodi:type="arc"
       style="fill:#ff0000;fill-opacity:1;stroke:#000000"
       id="rouge4"
       class="color"
       sodipodi:cx="-126.42857"
       sodipodi:cy="28.089552"
       sodipodi:rx="19.285715"
       sodipodi:ry="19.285715"
       d="m -107.14286,28.089552 c 0,10.651206 -8.63451,19.285715 -19.28571,19.285715 -10.65121,0 -19.28572,-8.634509 -19.28572,-19.285715 0,-10.651206 8.63451,-19.2857152 19.28572,-19.2857152 10.6512,0 19.28571,8.6345092 19.28571,19.2857152 z"
       transform="matrix(1.1901234,0,0,1.1901234,669.08862,419.99745)"
       inkscape:label="#path3239" />
    <path
       inkscape:label="#path3239"
       transform="matrix(1.1901234,0,0,1.1901234,785.63329,419.99745)"
       d="m -107.14286,28.089552 c 0,10.651206 -8.63451,19.285715 -19.28571,19.285715 -10.65121,0 -19.28572,-8.634509 -19.28572,-19.285715 0,-10.651206 8.63451,-19.2857152 19.28572,-19.2857152 10.6512,0 19.28571,8.6345092 19.28571,19.2857152 z"
       sodipodi:ry="19.285715"
       sodipodi:rx="19.285715"
       sodipodi:cy="28.089552"
       sodipodi:cx="-126.42857"
       id="jaune4"
       class="color"
       style="fill:#ffcc00;fill-opacity:1;stroke:#000000"
       sodipodi:type="arc" />
    <path
       sodipodi:type="arc"
       style="fill:#00ff00;fill-opacity:1;stroke:#000000"
       id="vert4"
       class="color"
       sodipodi:cx="-126.42857"
       sodipodi:cy="28.089552"
       sodipodi:rx="19.285715"
       sodipodi:ry="19.285715"
       d="m -107.14286,28.089552 c 0,10.651206 -8.63451,19.285715 -19.28571,19.285715 -10.65121,0 -19.28572,-8.634509 -19.28572,-19.285715 0,-10.651206 8.63451,-19.2857152 19.28572,-19.2857152 10.6512,0 19.28571,8.6345092 19.28571,19.2857152 z"
       transform="matrix(1.1901234,0,0,1.1901234,844.83898,419.99745)"
       inkscape:label="#path3239" />
    <path
       inkscape:label="#path3239"
       transform="matrix(1.1901234,0,0,1.1901234,899.05855,419.99745)"
       d="m -107.14286,28.089552 c 0,10.651206 -8.63451,19.285715 -19.28571,19.285715 -10.65121,0 -19.28572,-8.634509 -19.28572,-19.285715 0,-10.651206 8.63451,-19.2857152 19.28572,-19.2857152 10.6512,0 19.28571,8.6345092 19.28571,19.2857152 z"
       sodipodi:ry="19.285715"
       sodipodi:rx="19.285715"
       sodipodi:cy="28.089552"
       sodipodi:cx="-126.42857"
       id="bleu4"
       class="color"
       style="fill:#0066ff;fill-opacity:1;stroke:#000000"
       sodipodi:type="arc" />
    <path
       sodipodi:type="arc"
       style="fill:#ff00cc;fill-opacity:1;stroke:#000000"
       id="violet4"
       class="color"
       sodipodi:cx="-126.42857"
       sodipodi:cy="28.089552"
       sodipodi:rx="19.285715"
       sodipodi:ry="19.285715"
       d="m -107.14286,28.089552 c 0,10.651206 -8.63451,19.285715 -19.28571,19.285715 -10.65121,0 -19.28572,-8.634509 -19.28572,-19.285715 0,-10.651206 8.63451,-19.2857152 19.28572,-19.2857152 10.6512,0 19.28571,8.6345092 19.28571,19.2857152 z"
       transform="matrix(1.1901234,0,0,1.1901234,954.52469,419.99745)"
       inkscape:label="#path3239" />
    <path
       inkscape:label="#path3239"
       transform="matrix(1.1901234,0,0,1.1901234,1012.4839,419.99745)"
       d="m -107.14286,28.089552 c 0,10.651206 -8.63451,19.285715 -19.28571,19.285715 -10.65121,0 -19.28572,-8.634509 -19.28572,-19.285715 0,-10.651206 8.63451,-19.2857152 19.28572,-19.2857152 10.6512,0 19.28571,8.6345092 19.28571,19.2857152 z"
       sodipodi:ry="19.285715"
       sodipodi:rx="19.285715"
       sodipodi:cy="28.089552"
       sodipodi:cx="-126.42857"
       id="gris3"
       class="color"
       style="fill:#808080;fill-opacity:1;stroke:#000000"
       sodipodi:type="arc" />
    <path
       inkscape:label="#path3138"
       sodipodi:type="arc"
       style="fill:#ff7f2a;fill-opacity:1;stroke:#000000;stroke-width:2.1552937"
       id="orange3"
       class="color"
       sodipodi:cx="-277.89297"
       sodipodi:cy="16.891739"
       sodipodi:rx="41.719299"
       sodipodi:ry="41.719299"
       d="m -236.17368,16.891739 c 0,23.040933 -18.67836,41.719299 -41.71929,41.719299 -23.04094,0 -41.7193,-18.678366 -41.7193,-41.719299 0,-23.0409329 18.67836,-41.719299 41.7193,-41.719299 23.04093,0 41.71929,18.6783661 41.71929,41.719299 z"
       transform="matrix(0,0.55016669,-0.55016669,0,587.12846,656.22961)" />
    <path
       transform="matrix(0,0.55016669,-0.55016669,0,527.91652,656.22961)"
       d="m -236.17368,16.891739 c 0,23.040933 -18.67836,41.719299 -41.71929,41.719299 -23.04094,0 -41.7193,-18.678366 -41.7193,-41.719299 0,-23.0409329 18.67836,-41.719299 41.7193,-41.719299 23.04093,0 41.71929,18.6783661 41.71929,41.719299 z"
       sodipodi:ry="41.719299"
       sodipodi:rx="41.719299"
       sodipodi:cy="16.891739"
       sodipodi:cx="-277.89297"
       id="rouge3"
       class="color"
       style="fill:#ff2a2a;fill-opacity:1;stroke:#000000;stroke-width:2.1552937"
       sodipodi:type="arc"
       inkscape:label="#path3138" />
    <path
       inkscape:label="#path3138"
       sodipodi:type="arc"
       style="fill:#ffd42a;fill-opacity:1;stroke:#000000;stroke-width:2.1552937"
       id="jaune3"
       class="color"
       sodipodi:cx="-277.89297"
       sodipodi:cy="16.891739"
       sodipodi:rx="41.719299"
       sodipodi:ry="41.719299"
       d="m -236.17368,16.891739 c 0,23.040933 -18.67836,41.719299 -41.71929,41.719299 -23.04094,0 -41.7193,-18.678366 -41.7193,-41.719299 0,-23.0409329 18.67836,-41.719299 41.7193,-41.719299 23.04093,0 41.71929,18.6783661 41.71929,41.719299 z"
       transform="matrix(0,0.55016669,-0.55016669,0,644.46118,656.22961)" />
    <path
       transform="matrix(0,-0.55016669,-0.55016669,0,703.66681,350.4547)"
       d="m -236.17368,16.891739 c 0,23.040933 -18.67836,41.719299 -41.71929,41.719299 -23.04094,0 -41.7193,-18.678366 -41.7193,-41.719299 0,-23.0409329 18.67836,-41.719299 41.7193,-41.719299 23.04093,0 41.71929,18.6783661 41.71929,41.719299 z"
       sodipodi:ry="41.719299"
       sodipodi:rx="41.719299"
       sodipodi:cy="16.891739"
       sodipodi:cx="-277.89297"
       id="vert3"
       class="color"
       style="fill:#2aff2a;fill-opacity:1;stroke:#000000;stroke-width:2.1552937"
       sodipodi:type="arc"
       inkscape:label="#path3138" />
    <path
       inkscape:label="#path3138"
       sodipodi:type="arc"
       style="fill:#2a7fff;fill-opacity:1;stroke:#000000;stroke-width:2.1552937"
       id="bleu3"
       class="color"
       sodipodi:cx="-277.89297"
       sodipodi:cy="16.891739"
       sodipodi:rx="41.719299"
       sodipodi:ry="41.719299"
       d="m -236.17368,16.891739 c 0,23.040933 -18.67836,41.719299 -41.71929,41.719299 -23.04094,0 -41.7193,-18.678366 -41.7193,-41.719299 0,-23.0409329 18.67836,-41.719299 41.7193,-41.719299 23.04093,0 41.71929,18.6783661 41.71929,41.719299 z"
       transform="matrix(0,0.55016669,-0.55016669,0,757.88641,656.22961)" />
    <path
       transform="matrix(0,0.55016669,-0.55016669,0,813.35258,656.22961)"
       d="m -236.17368,16.891739 c 0,23.040933 -18.67836,41.719299 -41.71929,41.719299 -23.04094,0 -41.7193,-18.678366 -41.7193,-41.719299 0,-23.0409329 18.67836,-41.719299 41.7193,-41.719299 23.04093,0 41.71929,18.6783661 41.71929,41.719299 z"
       sodipodi:ry="41.719299"
       sodipodi:rx="41.719299"
       sodipodi:cy="16.891739"
       sodipodi:cx="-277.89297"
       id="violet3"
       class="color"
       style="fill:#ff2ad4;fill-opacity:1;stroke:#000000;stroke-width:2.1552937"
       sodipodi:type="arc"
       inkscape:label="#path3138" />
    <path
       inkscape:label="#path3138"
       sodipodi:type="arc"
       style="fill:#999999;fill-opacity:1;stroke:#000000;stroke-width:2.1552937"
       id="gris2"
       class="color"
       sodipodi:cx="-277.89297"
       sodipodi:cy="16.891739"
       sodipodi:rx="41.719299"
       sodipodi:ry="41.719299"
       d="m -236.17368,16.891739 c 0,23.040933 -18.67836,41.719299 -41.71929,41.719299 -23.04094,0 -41.7193,-18.678366 -41.7193,-41.719299 0,-23.0409329 18.67836,-41.719299 41.7193,-41.719299 23.04093,0 41.71929,18.6783661 41.71929,41.719299 z"
       transform="matrix(0,0.55016669,-0.55016669,0,871.31171,656.22961)" />
    <path
       inkscape:label="#path3038"
       transform="matrix(0,0.60401498,-0.60401498,0,696.14807,683.04278)"
       d="m -94,195.87744 c 0,20.98682 -17.01318,38 -38,38 -20.98682,0 -38,-17.01318 -38,-38 0,-20.98682 17.01318,-38 38,-38 20.98682,0 38,17.01318 38,38 z"
       sodipodi:ry="38"
       sodipodi:rx="38"
       sodipodi:cy="195.87744"
       sodipodi:cx="-132"
       id="orange1"
       class="color"
       style="fill:#ffb380;fill-opacity:1;stroke:#000000;stroke-width:1.96314788"
       sodipodi:type="arc" />
    <path
       sodipodi:type="arc"
       style="fill:#ff8080;fill-opacity:1;stroke:#000000;stroke-width:1.96314788"
       id="rouge1"
       class="color"
       sodipodi:cx="-132"
       sodipodi:cy="195.87744"
       sodipodi:rx="38"
       sodipodi:ry="38"
       d="m -94,195.87744 c 0,20.98682 -17.01318,38 -38,38 -20.98682,0 -38,-17.01318 -38,-38 0,-20.98682 17.01318,-38 38,-38 20.98682,0 38,17.01318 38,38 z"
       transform="matrix(0,0.60401498,-0.60401498,0,636.93615,683.04278)"
       inkscape:label="#path3038" />
    <path
       inkscape:label="#path3038"
       transform="matrix(0,0.60401498,-0.60401498,0,753.4808,683.04278)"
       d="m -94,195.87744 c 0,20.98682 -17.01318,38 -38,38 -20.98682,0 -38,-17.01318 -38,-38 0,-20.98682 17.01318,-38 38,-38 20.98682,0 38,17.01318 38,38 z"
       sodipodi:ry="38"
       sodipodi:rx="38"
       sodipodi:cy="195.87744"
       sodipodi:cx="-132"
       id="jaune1"
       class="color"
       style="fill:#ffe680;fill-opacity:1;stroke:#000000;stroke-width:1.96314788"
       sodipodi:type="arc" />
    <path
       sodipodi:type="arc"
       style="fill:#80ff80;fill-opacity:1;stroke:#000000;stroke-width:1.96314788"
       id="vert1"
       class="color"
       sodipodi:cx="-132"
       sodipodi:cy="195.87744"
       sodipodi:rx="38"
       sodipodi:ry="38"
       d="m -94,195.87744 c 0,20.98682 -17.01318,38 -38,38 -20.98682,0 -38,-17.01318 -38,-38 0,-20.98682 17.01318,-38 38,-38 20.98682,0 38,17.01318 38,38 z"
       transform="matrix(0,0.60401498,-0.60401498,0,812.68641,683.04278)"
       inkscape:label="#path3038" />
    <path
       inkscape:label="#path3038"
       transform="matrix(0,0.60401498,-0.60401498,0,866.9061,683.04278)"
       d="m -94,195.87744 c 0,20.98682 -17.01318,38 -38,38 -20.98682,0 -38,-17.01318 -38,-38 0,-20.98682 17.01318,-38 38,-38 20.98682,0 38,17.01318 38,38 z"
       sodipodi:ry="38"
       sodipodi:rx="38"
       sodipodi:cy="195.87744"
       sodipodi:cx="-132"
       id="bleu1"
       class="color"
       style="fill:#80b3ff;fill-opacity:1;stroke:#000000;stroke-width:1.96314788"
       sodipodi:type="arc" />
    <path
       sodipodi:type="arc"
       style="fill:#ff80e5;fill-opacity:1;stroke:#000000;stroke-width:1.96314788"
       id="violet1"
       class="color"
       sodipodi:cx="-132"
       sodipodi:cy="195.87744"
       sodipodi:rx="38"
       sodipodi:ry="38"
       d="m -94,195.87744 c 0,20.98682 -17.01318,38 -38,38 -20.98682,0 -38,-17.01318 -38,-38 0,-20.98682 17.01318,-38 38,-38 20.98682,0 38,17.01318 38,38 z"
       transform="matrix(0,0.60401498,-0.60401498,0,922.37223,683.04278)"
       inkscape:label="#path3038" />
    <path
       inkscape:label="#path3038"
       transform="matrix(0,0.60401498,-0.60401498,0,980.33136,682.76031)"
       d="m -94,195.87744 c 0,20.98682 -17.01318,38 -38,38 -20.98682,0 -38,-17.01318 -38,-38 0,-20.98682 17.01318,-38 38,-38 20.98682,0 38,17.01318 38,38 z"
       sodipodi:ry="38"
       sodipodi:rx="38"
       sodipodi:cy="195.87744"
       sodipodi:cx="-132"
       id="blanc"
       class="color"
       style="fill:#ffffff;fill-opacity:1;stroke:#000000;stroke-width:1.96314788"
       sodipodi:type="arc" />
    <path
       transform="matrix(1.1901234,0,0,1.1901234,728.30064,519.82684)"
       d="m -107.14286,28.089552 c 0,10.651206 -8.63451,19.285715 -19.28571,19.285715 -10.65121,0 -19.28572,-8.634509 -19.28572,-19.285715 0,-10.651206 8.63451,-19.2857152 19.28572,-19.2857152 10.6512,0 19.28571,8.6345092 19.28571,19.2857152 z"
       sodipodi:ry="19.285715"
       sodipodi:rx="19.285715"
       sodipodi:cy="28.089552"
       sodipodi:cx="-126.42857"
       id="orange2"
       class="color"
       style="fill:#ff9955;fill-opacity:1;stroke:#000000"
       sodipodi:type="arc"
       inkscape:label="#path3082" />
    <path
       inkscape:label="#path3082"
       sodipodi:type="arc"
       style="fill:#ff5555;fill-opacity:1;stroke:#000000"
       id="rouge2"
       class="color"
       sodipodi:cx="-126.42857"
       sodipodi:cy="28.089552"
       sodipodi:rx="19.285715"
       sodipodi:ry="19.285715"
       d="m -107.14286,28.089552 c 0,10.651206 -8.63451,19.285715 -19.28571,19.285715 -10.65121,0 -19.28572,-8.634509 -19.28572,-19.285715 0,-10.651206 8.63451,-19.2857152 19.28572,-19.2857152 10.6512,0 19.28571,8.6345092 19.28571,19.2857152 z"
       transform="matrix(1.1901234,0,0,1.1901234,669.08862,519.82684)" />
    <path
       transform="matrix(1.1901234,0,0,1.1901234,785.63329,519.82684)"
       d="m -107.14286,28.089552 c 0,10.651206 -8.63451,19.285715 -19.28571,19.285715 -10.65121,0 -19.28572,-8.634509 -19.28572,-19.285715 0,-10.651206 8.63451,-19.2857152 19.28572,-19.2857152 10.6512,0 19.28571,8.6345092 19.28571,19.2857152 z"
       sodipodi:ry="19.285715"
       sodipodi:rx="19.285715"
       sodipodi:cy="28.089552"
       sodipodi:cx="-126.42857"
       id="jaune2"
       class="color"
       style="fill:#ffdd55;fill-opacity:1;stroke:#000000"
       sodipodi:type="arc"
       inkscape:label="#path3082" />
    <path
       inkscape:label="#path3082"
       sodipodi:type="arc"
       style="fill:#55ff55;fill-opacity:1;stroke:#000000"
       id="vert2"
       class="color"
       sodipodi:cx="-126.42857"
       sodipodi:cy="28.089552"
       sodipodi:rx="19.285715"
       sodipodi:ry="19.285715"
       d="m -107.14286,28.089552 c 0,10.651206 -8.63451,19.285715 -19.28571,19.285715 -10.65121,0 -19.28572,-8.634509 -19.28572,-19.285715 0,-10.651206 8.63451,-19.2857152 19.28572,-19.2857152 10.6512,0 19.28571,8.6345092 19.28571,19.2857152 z"
       transform="matrix(1.1901234,0,0,1.1901234,844.83898,519.82684)" />
    <path
       transform="matrix(1.1901234,0,0,1.1901234,899.05855,519.82684)"
       d="m -107.14286,28.089552 c 0,10.651206 -8.63451,19.285715 -19.28571,19.285715 -10.65121,0 -19.28572,-8.634509 -19.28572,-19.285715 0,-10.651206 8.63451,-19.2857152 19.28572,-19.2857152 10.6512,0 19.28571,8.6345092 19.28571,19.2857152 z"
       sodipodi:ry="19.285715"
       sodipodi:rx="19.285715"
       sodipodi:cy="28.089552"
       sodipodi:cx="-126.42857"
       id="bleu2"
       class="color"
       style="fill:#5599ff;fill-opacity:1;stroke:#000000"
       sodipodi:type="arc"
       inkscape:label="#path3082" />
    <path
       inkscape:label="#path3082"
       sodipodi:type="arc"
       style="fill:#ff55dd;fill-opacity:1;stroke:#000000"
       id="violet2"
       class="color"
       sodipodi:cx="-126.42857"
       sodipodi:cy="28.089552"
       sodipodi:rx="19.285715"
       sodipodi:ry="19.285715"
       d="m -107.14286,28.089552 c 0,10.651206 -8.63451,19.285715 -19.28571,19.285715 -10.65121,0 -19.28572,-8.634509 -19.28572,-19.285715 0,-10.651206 8.63451,-19.2857152 19.28572,-19.2857152 10.6512,0 19.28571,8.6345092 19.28571,19.2857152 z"
       transform="matrix(1.1901234,0,0,1.1901234,954.52469,519.82684)" />
    <path
       transform="matrix(1.1901234,0,0,1.1901234,1012.4839,519.82684)"
       d="m -107.14286,28.089552 c 0,10.651206 -8.63451,19.285715 -19.28571,19.285715 -10.65121,0 -19.28572,-8.634509 -19.28572,-19.285715 0,-10.651206 8.63451,-19.2857152 19.28572,-19.2857152 10.6512,0 19.28571,8.6345092 19.28571,19.2857152 z"
       sodipodi:ry="19.285715"
       sodipodi:rx="19.285715"
       sodipodi:cy="28.089552"
       sodipodi:cx="-126.42857"
       id="gris1"
       class="color"
       style="fill:#b3b3b3;fill-opacity:1;stroke:#000000"
       sodipodi:type="arc"
       inkscape:label="#path3082" />
    <path
       sodipodi:type="arc"
       style="fill:#d45500;fill-opacity:1;stroke:#000000"
       id="orange5"
       class="color"
       sodipodi:cx="-126.42857"
       sodipodi:cy="28.089552"
       sodipodi:rx="19.285715"
       sodipodi:ry="19.285715"
       d="m -107.14286,28.089552 c 0,10.651206 -8.63451,19.285715 -19.28571,19.285715 -10.65121,0 -19.28572,-8.634509 -19.28572,-19.285715 0,-10.651206 8.63451,-19.2857152 19.28572,-19.2857152 10.6512,0 19.28571,8.6345092 19.28571,19.2857152 z"
       transform="matrix(1.1901234,0,0,1.1901234,728.30064,370.08274)"
       inkscape:label="#path3239" />
    <path
       inkscape:label="#path3239"
       transform="matrix(1.1901234,0,0,1.1901234,669.08862,370.08274)"
       d="m -107.14286,28.089552 c 0,10.651206 -8.63451,19.285715 -19.28571,19.285715 -10.65121,0 -19.28572,-8.634509 -19.28572,-19.285715 0,-10.651206 8.63451,-19.2857152 19.28572,-19.2857152 10.6512,0 19.28571,8.6345092 19.28571,19.2857152 z"
       sodipodi:ry="19.285715"
       sodipodi:rx="19.285715"
       sodipodi:cy="28.089552"
       sodipodi:cx="-126.42857"
       id="rouge5"
       class="color"
       style="fill:#d40000;fill-opacity:1;stroke:#000000"
       sodipodi:type="arc" />
    <path
       sodipodi:type="arc"
       style="fill:#d4aa00;fill-opacity:1;stroke:#000000"
       id="jaune5"
       class="color"
       sodipodi:cx="-126.42857"
       sodipodi:cy="28.089552"
       sodipodi:rx="19.285715"
       sodipodi:ry="19.285715"
       d="m -107.14286,28.089552 c 0,10.651206 -8.63451,19.285715 -19.28571,19.285715 -10.65121,0 -19.28572,-8.634509 -19.28572,-19.285715 0,-10.651206 8.63451,-19.2857152 19.28572,-19.2857152 10.6512,0 19.28571,8.6345092 19.28571,19.2857152 z"
       transform="matrix(1.1901234,0,0,1.1901234,785.63329,370.08274)"
       inkscape:label="#path3239" />
    <path
       inkscape:label="#path3239"
       transform="matrix(1.1901234,0,0,1.1901234,844.83898,370.08274)"
       d="m -107.14286,28.089552 c 0,10.651206 -8.63451,19.285715 -19.28571,19.285715 -10.65121,0 -19.28572,-8.634509 -19.28572,-19.285715 0,-10.651206 8.63451,-19.2857152 19.28572,-19.2857152 10.6512,0 19.28571,8.6345092 19.28571,19.2857152 z"
       sodipodi:ry="19.285715"
       sodipodi:rx="19.285715"
       sodipodi:cy="28.089552"
       sodipodi:cx="-126.42857"
       id="vert5"
       class="color"
       style="fill:#00d400;fill-opacity:1;stroke:#000000"
       sodipodi:type="arc" />
    <path
       sodipodi:type="arc"
       style="fill:#0055d4;fill-opacity:1;stroke:#000000"
       id="bleu5"
       class="color"
       sodipodi:cx="-126.42857"
       sodipodi:cy="28.089552"
       sodipodi:rx="19.285715"
       sodipodi:ry="19.285715"
       d="m -107.14286,28.089552 c 0,10.651206 -8.63451,19.285715 -19.28571,19.285715 -10.65121,0 -19.28572,-8.634509 -19.28572,-19.285715 0,-10.651206 8.63451,-19.2857152 19.28572,-19.2857152 10.6512,0 19.28571,8.6345092 19.28571,19.2857152 z"
       transform="matrix(1.1901234,0,0,1.1901234,899.05855,370.08274)"
       inkscape:label="#path3239" />
    <path
       inkscape:label="#path3239"
       transform="matrix(1.1901234,0,0,1.1901234,954.52469,370.08274)"
       d="m -107.14286,28.089552 c 0,10.651206 -8.63451,19.285715 -19.28571,19.285715 -10.65121,0 -19.28572,-8.634509 -19.28572,-19.285715 0,-10.651206 8.63451,-19.2857152 19.28572,-19.2857152 10.6512,0 19.28571,8.6345092 19.28571,19.2857152 z"
       sodipodi:ry="19.285715"
       sodipodi:rx="19.285715"
       sodipodi:cy="28.089552"
       sodipodi:cx="-126.42857"
       id="violet5"
       class="color"
       style="fill:#d400aa;fill-opacity:1;stroke:#000000"
       sodipodi:type="arc" />
    <path
       sodipodi:type="arc"
       style="fill:#666666;fill-opacity:1;stroke:#000000"
       id="gris4"
       class="color"
       sodipodi:cx="-126.42857"
       sodipodi:cy="28.089552"
       sodipodi:rx="19.285715"
       sodipodi:ry="19.285715"
       d="m -107.14286,28.089552 c 0,10.651206 -8.63451,19.285715 -19.28571,19.285715 -10.65121,0 -19.28572,-8.634509 -19.28572,-19.285715 0,-10.651206 8.63451,-19.2857152 19.28572,-19.2857152 10.6512,0 19.28571,8.6345092 19.28571,19.2857152 z"
       transform="matrix(1.1901234,0,0,1.1901234,1012.4839,370.08274)"
       inkscape:label="#path3239" />
    <path
       inkscape:label="#path3239"
       transform="matrix(1.1901234,0,0,1.1901234,728.30064,270.25333)"
       d="m -107.14286,28.089552 c 0,10.651206 -8.63451,19.285715 -19.28571,19.285715 -10.65121,0 -19.28572,-8.634509 -19.28572,-19.285715 0,-10.651206 8.63451,-19.2857152 19.28572,-19.2857152 10.6512,0 19.28571,8.6345092 19.28571,19.2857152 z"
       sodipodi:ry="19.285715"
       sodipodi:rx="19.285715"
       sodipodi:cy="28.089552"
       sodipodi:cx="-126.42857"
       id="orange7"
       class="color"
       style="fill:#803300;fill-opacity:1;stroke:#000000"
       sodipodi:type="arc" />
    <path
       sodipodi:type="arc"
       style="fill:#800000;fill-opacity:1;stroke:#000000"
       id="rouge7"
       class="color"
       sodipodi:cx="-126.42857"
       sodipodi:cy="28.089552"
       sodipodi:rx="19.285715"
       sodipodi:ry="19.285715"
       d="m -107.14286,28.089552 c 0,10.651206 -8.63451,19.285715 -19.28571,19.285715 -10.65121,0 -19.28572,-8.634509 -19.28572,-19.285715 0,-10.651206 8.63451,-19.2857152 19.28572,-19.2857152 10.6512,0 19.28571,8.6345092 19.28571,19.2857152 z"
       transform="matrix(1.1901234,0,0,1.1901234,669.08862,270.25333)"
       inkscape:label="#path3239" />
    <path
       inkscape:label="#path3239"
       transform="matrix(1.1901234,0,0,1.1901234,785.63329,270.25333)"
       d="m -107.14286,28.089552 c 0,10.651206 -8.63451,19.285715 -19.28571,19.285715 -10.65121,0 -19.28572,-8.634509 -19.28572,-19.285715 0,-10.651206 8.63451,-19.2857152 19.28572,-19.2857152 10.6512,0 19.28571,8.6345092 19.28571,19.2857152 z"
       sodipodi:ry="19.285715"
       sodipodi:rx="19.285715"
       sodipodi:cy="28.089552"
       sodipodi:cx="-126.42857"
       id="jaune7"
       class="color"
       style="fill:#806600;fill-opacity:1;stroke:#000000"
       sodipodi:type="arc" />
    <path
       sodipodi:type="arc"
       style="fill:#008000;fill-opacity:1;stroke:#000000"
       id="vert7"
       class="color"
       sodipodi:cx="-126.42857"
       sodipodi:cy="28.089552"
       sodipodi:rx="19.285715"
       sodipodi:ry="19.285715"
       d="m -107.14286,28.089552 c 0,10.651206 -8.63451,19.285715 -19.28571,19.285715 -10.65121,0 -19.28572,-8.634509 -19.28572,-19.285715 0,-10.651206 8.63451,-19.2857152 19.28572,-19.2857152 10.6512,0 19.28571,8.6345092 19.28571,19.2857152 z"
       transform="matrix(1.1901234,0,0,1.1901234,844.83898,270.25333)"
       inkscape:label="#path3239" />
    <path
       inkscape:label="#path3239"
       transform="matrix(1.1901234,0,0,1.1901234,899.05855,270.25333)"
       d="m -107.14286,28.089552 c 0,10.651206 -8.63451,19.285715 -19.28571,19.285715 -10.65121,0 -19.28572,-8.634509 -19.28572,-19.285715 0,-10.651206 8.63451,-19.2857152 19.28572,-19.2857152 10.6512,0 19.28571,8.6345092 19.28571,19.2857152 z"
       sodipodi:ry="19.285715"
       sodipodi:rx="19.285715"
       sodipodi:cy="28.089552"
       sodipodi:cx="-126.42857"
       id="bleu7"
       class="color"
       style="fill:#003380;fill-opacity:1;stroke:#000000"
       sodipodi:type="arc" />
    <path
       sodipodi:type="arc"
       style="fill:#800066;fill-opacity:1;stroke:#000000"
       id="violet7"
       class="color"
       sodipodi:cx="-126.42857"
       sodipodi:cy="28.089552"
       sodipodi:rx="19.285715"
       sodipodi:ry="19.285715"
       d="m -107.14286,28.089552 c 0,10.651206 -8.63451,19.285715 -19.28571,19.285715 -10.65121,0 -19.28572,-8.634509 -19.28572,-19.285715 0,-10.651206 8.63451,-19.2857152 19.28572,-19.2857152 10.6512,0 19.28571,8.6345092 19.28571,19.2857152 z"
       transform="matrix(1.1901234,0,0,1.1901234,954.52469,270.25333)"
       inkscape:label="#path3239" />
    <path
       inkscape:label="#path3239"
       transform="matrix(1.1901234,0,0,1.1901234,1012.4839,270.25333)"
       d="m -107.14286,28.089552 c 0,10.651206 -8.63451,19.285715 -19.28571,19.285715 -10.65121,0 -19.28572,-8.634509 -19.28572,-19.285715 0,-10.651206 8.63451,-19.2857152 19.28572,-19.2857152 10.6512,0 19.28571,8.6345092 19.28571,19.2857152 z"
       sodipodi:ry="19.285715"
       sodipodi:rx="19.285715"
       sodipodi:cy="28.089552"
       sodipodi:cx="-126.42857"
       id="gris6"
       class="color"
       style="fill:#333333;fill-opacity:1;stroke:#000000"
       sodipodi:type="arc" />
    <path
       sodipodi:type="arc"
       style="fill:#552200;fill-opacity:1;stroke:#000000"
       id="orange8"
       class="color"
       sodipodi:cx="-126.42857"
       sodipodi:cy="28.089552"
       sodipodi:rx="19.285715"
       sodipodi:ry="19.285715"
       d="m -107.14286,28.089552 c 0,10.651206 -8.63451,19.285715 -19.28571,19.285715 -10.65121,0 -19.28572,-8.634509 -19.28572,-19.285715 0,-10.651206 8.63451,-19.2857152 19.28572,-19.2857152 10.6512,0 19.28571,8.6345092 19.28571,19.2857152 z"
       transform="matrix(1.1901234,0,0,1.1901234,728.30064,220.33865)"
       inkscape:label="#path3239" />
    <path
       inkscape:label="#path3239"
       transform="matrix(1.1901234,0,0,1.1901234,669.08862,220.33865)"
       d="m -107.14286,28.089552 c 0,10.651206 -8.63451,19.285715 -19.28571,19.285715 -10.65121,0 -19.28572,-8.634509 -19.28572,-19.285715 0,-10.651206 8.63451,-19.2857152 19.28572,-19.2857152 10.6512,0 19.28571,8.6345092 19.28571,19.2857152 z"
       sodipodi:ry="19.285715"
       sodipodi:rx="19.285715"
       sodipodi:cy="28.089552"
       sodipodi:cx="-126.42857"
       id="rouge8"
       class="color"
       style="fill:#550000;fill-opacity:1;stroke:#000000"
       sodipodi:type="arc" />
    <path
       sodipodi:type="arc"
       style="fill:#554400;fill-opacity:1;stroke:#000000"
       id="jaune8"
       class="color"
       sodipodi:cx="-126.42857"
       sodipodi:cy="28.089552"
       sodipodi:rx="19.285715"
       sodipodi:ry="19.285715"
       d="m -107.14286,28.089552 c 0,10.651206 -8.63451,19.285715 -19.28571,19.285715 -10.65121,0 -19.28572,-8.634509 -19.28572,-19.285715 0,-10.651206 8.63451,-19.2857152 19.28572,-19.2857152 10.6512,0 19.28571,8.6345092 19.28571,19.2857152 z"
       transform="matrix(1.1901234,0,0,1.1901234,785.63329,220.33865)"
       inkscape:label="#path3239" />
    <path
       inkscape:label="#path3239"
       transform="matrix(1.1901234,0,0,-1.1901234,844.83898,287.19871)"
       d="m -107.14286,28.089552 c 0,10.651206 -8.63451,19.285715 -19.28571,19.285715 -10.65121,0 -19.28572,-8.634509 -19.28572,-19.285715 0,-10.651206 8.63451,-19.2857152 19.28572,-19.2857152 10.6512,0 19.28571,8.6345092 19.28571,19.2857152 z"
       sodipodi:ry="19.285715"
       sodipodi:rx="19.285715"
       sodipodi:cy="28.089552"
       sodipodi:cx="-126.42857"
       id="vert8"
       class="color"
       style="fill:#005500;fill-opacity:1;stroke:#000000"
       sodipodi:type="arc" />
    <path
       sodipodi:type="arc"
       style="fill:#002255;fill-opacity:1;stroke:#000000"
       id="bleu8"
       class="color"
       sodipodi:cx="-126.42857"
       sodipodi:cy="28.089552"
       sodipodi:rx="19.285715"
       sodipodi:ry="19.285715"
       d="m -107.14286,28.089552 c 0,10.651206 -8.63451,19.285715 -19.28571,19.285715 -10.65121,0 -19.28572,-8.634509 -19.28572,-19.285715 0,-10.651206 8.63451,-19.2857152 19.28572,-19.2857152 10.6512,0 19.28571,8.6345092 19.28571,19.2857152 z"
       transform="matrix(1.1901234,0,0,1.1901234,899.05855,220.33865)"
       inkscape:label="#path3239" />
    <path
       inkscape:label="#path3239"
       transform="matrix(1.1901234,0,0,1.1901234,954.52469,220.33865)"
       d="m -107.14286,28.089552 c 0,10.651206 -8.63451,19.285715 -19.28571,19.285715 -10.65121,0 -19.28572,-8.634509 -19.28572,-19.285715 0,-10.651206 8.63451,-19.2857152 19.28572,-19.2857152 10.6512,0 19.28571,8.6345092 19.28571,19.2857152 z"
       sodipodi:ry="19.285715"
       sodipodi:rx="19.285715"
       sodipodi:cy="28.089552"
       sodipodi:cx="-126.42857"
       id="violet8"
       class="color"
       style="fill:#550044;fill-opacity:1;stroke:#000000"
       sodipodi:type="arc" />
    <path
       sodipodi:type="arc"
       style="fill:#1a1a1a;fill-opacity:1;stroke:#000000"
       id="gris7"
       class="color"
       sodipodi:cx="-126.42857"
       sodipodi:cy="28.089552"
       sodipodi:rx="19.285715"
       sodipodi:ry="19.285715"
       d="m -107.14286,28.089552 c 0,10.651206 -8.63451,19.285715 -19.28571,19.285715 -10.65121,0 -19.28572,-8.634509 -19.28572,-19.285715 0,-10.651206 8.63451,-19.2857152 19.28572,-19.2857152 10.6512,0 19.28571,8.6345092 19.28571,19.2857152 z"
       transform="matrix(1.1901234,0,0,1.1901234,1012.4839,220.33865)"
       inkscape:label="#path3239" />
    <path
       inkscape:label="#path3239"
       transform="matrix(1.1901234,0,0,1.1901234,728.30064,320.16804)"
       d="m -107.14286,28.089552 c 0,10.651206 -8.63451,19.285715 -19.28571,19.285715 -10.65121,0 -19.28572,-8.634509 -19.28572,-19.285715 0,-10.651206 8.63451,-19.2857152 19.28572,-19.2857152 10.6512,0 19.28571,8.6345092 19.28571,19.2857152 z"
       sodipodi:ry="19.285715"
       sodipodi:rx="19.285715"
       sodipodi:cy="28.089552"
       sodipodi:cx="-126.42857"
       id="orange6"
       class="color"
       style="fill:#aa4400;fill-opacity:1;stroke:#000000"
       sodipodi:type="arc" />
    <path
       sodipodi:type="arc"
       style="fill:#aa0000;fill-opacity:1;stroke:#000000"
       id="rouge6"
       class="color"
       sodipodi:cx="-126.42857"
       sodipodi:cy="28.089552"
       sodipodi:rx="19.285715"
       sodipodi:ry="19.285715"
       d="m -107.14286,28.089552 c 0,10.651206 -8.63451,19.285715 -19.28571,19.285715 -10.65121,0 -19.28572,-8.634509 -19.28572,-19.285715 0,-10.651206 8.63451,-19.2857152 19.28572,-19.2857152 10.6512,0 19.28571,8.6345092 19.28571,19.2857152 z"
       transform="matrix(1.1901234,0,0,1.1901234,669.08862,320.16804)"
       inkscape:label="#path3239" />
    <path
       inkscape:label="#path3239"
       transform="matrix(1.1901234,0,0,1.1901234,785.63329,320.16804)"
       d="m -107.14286,28.089552 c 0,10.651206 -8.63451,19.285715 -19.28571,19.285715 -10.65121,0 -19.28572,-8.634509 -19.28572,-19.285715 0,-10.651206 8.63451,-19.2857152 19.28572,-19.2857152 10.6512,0 19.28571,8.6345092 19.28571,19.2857152 z"
       sodipodi:ry="19.285715"
       sodipodi:rx="19.285715"
       sodipodi:cy="28.089552"
       sodipodi:cx="-126.42857"
       id="jaune6"
       class="color"
       style="fill:#aa8800;fill-opacity:1;stroke:#000000"
       sodipodi:type="arc" />
    <path
       sodipodi:type="arc"
       style="fill:#00aa00;fill-opacity:1;stroke:#000000"
       id="vert6"
       class="color"
       sodipodi:cx="-126.42857"
       sodipodi:cy="28.089552"
       sodipodi:rx="19.285715"
       sodipodi:ry="19.285715"
       d="m -107.14286,28.089552 c 0,10.651206 -8.63451,19.285715 -19.28571,19.285715 -10.65121,0 -19.28572,-8.634509 -19.28572,-19.285715 0,-10.651206 8.63451,-19.2857152 19.28572,-19.2857152 10.6512,0 19.28571,8.6345092 19.28571,19.2857152 z"
       transform="matrix(1.1901234,0,0,1.1901234,844.83898,320.16804)"
       inkscape:label="#path3239" />
    <path
       inkscape:label="#path3239"
       transform="matrix(1.1901234,0,0,1.1901234,899.05855,320.16804)"
       d="m -107.14286,28.089552 c 0,10.651206 -8.63451,19.285715 -19.28571,19.285715 -10.65121,0 -19.28572,-8.634509 -19.28572,-19.285715 0,-10.651206 8.63451,-19.2857152 19.28572,-19.2857152 10.6512,0 19.28571,8.6345092 19.28571,19.2857152 z"
       sodipodi:ry="19.285715"
       sodipodi:rx="19.285715"
       sodipodi:cy="28.089552"
       sodipodi:cx="-126.42857"
       id="bleu6"
       class="color"
       style="fill:#0044aa;fill-opacity:1;stroke:#000000"
       sodipodi:type="arc" />
    <path
       sodipodi:type="arc"
       style="fill:#aa0088;fill-opacity:1;stroke:#000000"
       id="violet6"
       class="color"
       sodipodi:cx="-126.42857"
       sodipodi:cy="28.089552"
       sodipodi:rx="19.285715"
       sodipodi:ry="19.285715"
       d="m -107.14286,28.089552 c 0,10.651206 -8.63451,19.285715 -19.28571,19.285715 -10.65121,0 -19.28572,-8.634509 -19.28572,-19.285715 0,-10.651206 8.63451,-19.2857152 19.28572,-19.2857152 10.6512,0 19.28571,8.6345092 19.28571,19.2857152 z"
       transform="matrix(1.1901234,0,0,1.1901234,954.52469,320.16804)"
       inkscape:label="violet6" />
    <path
       inkscape:label="#path3239"
       transform="matrix(1.1901234,0,0,1.1901234,1012.4839,320.16804)"
       d="m -107.14286,28.089552 c 0,10.651206 -8.63451,19.285715 -19.28571,19.285715 -10.65121,0 -19.28572,-8.634509 -19.28572,-19.285715 0,-10.651206 8.63451,-19.2857152 19.28572,-19.2857152 10.6512,0 19.28571,8.6345092 19.28571,19.2857152 z"
       sodipodi:ry="19.285715"
       sodipodi:rx="19.285715"
       sodipodi:cy="28.089552"
       sodipodi:cx="-126.42857"
       id="gris5"
       class="color"
       style="fill:#4d4d4d;fill-opacity:1;stroke:#000000"
       sodipodi:type="arc" />
  </g>
</svg>
